<?xml version="1.0" encoding="UTF-8"?>
<svg id="Livello_1" data-name="Livello 1" xmlns="http://www.w3.org/2000/svg" width="1031.89" height="1080.23" viewBox="0 0 1031.89 1080.23">
  <path d="m845.83,916.93c84.53-106.17,154.15-227.9,177.86-361.51,23.72-133.62-3.38-280.39-92.63-382.62-54.88-62.87-129.64-105.73-207.82-134.92C634.44,4.73,536.65-12.01,444.43,9.9c-74.63,17.73-141.52,59.74-200.28,109.05C92.84,245.94-14.85,438.17,1.72,635.02c14.49,172.16,134.6,342.34,309.05,412,154.02,61.5,294.48,19.57,318.54,12,116.05-36.5,186.98-108.32,216.52-142.09Z" style="fill: #1d1d1b; stroke-width: 0px;"/>
  <path d="m845.86,916.96c37.13-46.7,71.18-95.96,99.96-148.28,28.58-51.96,51.92-106.97,67.11-164.36,14.36-54.27,21.08-110.38,18.38-166.5-2.63-54.78-13.98-109.36-35.26-159.99-21.24-50.55-52.54-96.28-92.7-133.68-42.26-39.36-92.55-69.33-145.35-92.3-56.69-24.67-117.01-42.73-178.61-49.3-62.3-6.65-125.11-.22-183.67,22.57-54.88,21.36-104.48,54.51-149.53,92.06-42.87,35.73-81.82,76.21-115.72,120.55s-63.11,93.17-85.16,144.81c-21.31,49.88-36.06,102.68-42.16,156.63-5.9,52.23-3.66,105.38,8.01,156.68,11.14,48.98,30.32,96.06,55.79,139.32,25.94,44.06,58.47,84.25,96.21,118.75,38.64,35.32,82.78,64.65,130.62,85.97,55.23,24.62,115.04,37.9,175.44,39.89,43.31,1.43,86.94-2.67,129.18-12.37,37.61-8.64,73.98-22.53,108.14-40.44,40.06-21.01,77.07-47.78,109.74-79.06,10.31-9.87,20.18-20.21,29.59-30.95.04-.05-.03-.12-.07-.07-57.84,66.05-133.54,116.24-217.46,142.38-79.04,24.62-166.48,27.27-247.08,9.4-107.01-23.73-202.7-86.48-271.25-171.48C46.67,818.65,6.06,721.2.75,620.06c-5.77-109.86,27.23-218.57,82.79-312.63,28.25-47.82,62.3-92.18,100.7-132.29,39.62-41.38,83.99-78.99,132.5-109.58,51.46-32.44,108.43-55.81,169.14-62.89,63.09-7.36,127.19,1.37,187.94,18.89,110.27,31.81,219.79,90.68,285.28,187.82,61.29,90.92,81.57,205.38,69.32,313.22-13.3,117.06-64.62,226.85-130.29,323.42-16.52,24.29-34.05,47.88-52.33,70.88-.04.05.03.12.07.07Z" style="fill: #1d1d1b; stroke-width: 0px;"/>
</svg>