<?xml version="1.0" encoding="UTF-8"?>
<svg id="Livello_1" data-name="Livello 1" xmlns="http://www.w3.org/2000/svg" width="1203.05" height="1077.91" viewBox="0 0 1203.05 1077.91">
  <path d="m1195.36,581.98c7.7-55.08,26.74-191.29-52.4-329.46-87.68-153.08-235.42-204.45-267.97-214.52-56.11-17.36-114.9-23.92-173.33-29.87-76.56-7.79-154.83-14.55-229.71,3.19-97.14,23.02-180.09,85.22-254.56,151.7-75.24,67.16-146.69,142.59-185.83,235.53-77.06,183-6.73,408.85,144.17,537.91,150.9,129.06,366.91,166.7,561.13,125.4,50.6-10.76,100.26-26.49,146.91-48.85,104.09-49.9,191.79-133.31,246.83-234.77,22.84-42.28,52.63-109.44,64.77-196.27Z" style="fill: #1d1d1b; stroke-width: 0px;"/>
  <path d="m1195.41,581.99c5.88-42.09,9.28-84.33,6.8-126.85-3.74-64.13-20.01-127.32-49.39-184.55-27.08-52.75-64.63-99.79-109.66-138.34-33.18-28.41-70.23-52.31-109.65-71.1-28.01-13.35-57-23.69-87.13-31.1-34.95-8.6-70.63-13.76-106.36-17.86s-73.58-8.06-110.48-10.38c-71.36-4.49-142.73-.47-209.88,25.97-60.05,23.65-113.79,60.78-163.32,101.66-50.35,41.55-98.91,86.47-141.06,136.41-39.98,47.37-74.06,100.57-93.94,159.58C3.59,478.17-2.74,534.38,1.06,589.83c3.78,55.17,17.4,109.56,39.07,160.39,22.05,51.71,52.49,99.91,90.04,141.77,39.16,43.65,86.29,79.8,137.6,108.05,52.99,29.17,110.47,49.84,169.57,62.49,59.37,12.71,120.43,17.4,181.06,14.6,64.17-2.97,128.13-14.3,189.3-33.95,61.8-19.85,120.03-49.32,171.67-88.74,48.07-36.69,90.19-81.19,124.03-131.32,30.14-44.64,53.58-93.86,70.03-145.12,10.05-31.32,17.36-63.45,21.97-96.01,0-.06-.09-.09-.1-.03-16.56,116.84-68.71,227.88-150.23,313.45-41.91,43.99-90.99,81.19-144.87,109.32-60.21,31.44-126.27,51.44-193.1,62.76-118.94,20.16-243.91,11.37-357.43-30.34-110.71-40.68-207.99-113.53-271.15-213.84C19.57,729.68-10.31,615.85,3.34,505.41c7.28-58.91,27.67-114.85,58.39-165.55,33.46-55.21,77.25-103.43,123.97-147.67,46.71-44.23,96.06-86.76,150.5-121.26,57.33-36.33,120.23-61.36,188.07-68.2,72.03-7.27,145.27,1.43,216.85,9.69,51.66,5.96,103.84,14.02,152.82,32.1,79.75,29.42,152.44,80.4,206.34,146.17,42.51,51.87,73.12,113.08,89.04,178.24,12.95,53.03,16.15,108.02,11.83,162.35-1.35,16.97-3.49,33.85-5.84,50.7,0,.06.09.09.1.03Z" style="fill: #1d1d1b; stroke-width: 0px;"/>
</svg>