<?xml version="1.0" encoding="UTF-8"?>
<svg id="Livello_1" data-name="Livello 1" xmlns="http://www.w3.org/2000/svg" width="1659.14" height="1080.37" viewBox="0 0 1659.14 1080.37">
  <path d="m1461.23,597.2c7.9,22.59,15.8,45.19,23.7,67.78,34.28-16.64,78.33,6.9,112.28-10.4,28.9-14.72,36.98-51.51,41.82-83.58,24.33-161.16,44.31-341.55-52.22-472.88-18.46-11.2-43.5-2.79-58.71,12.55-15.21,15.33-23.41,36.02-33.31,55.21-18.6,36.04-44.41,68.35-75.45,94.46-105.52-104.99-222.73-208.16-367.16-244.19C994.66,1.81,934.84-1.23,875.58.52,551.87,10.1,235.58,168.86,34.49,422.71c-12.57,15.87-24.95,32.55-30.65,51.98-10.13,34.56,2.38,71.26,14.75,105.08,16.27,44.48,32.55,88.96,48.82,133.43,14.65,40.05,29.42,80.35,50.98,117.16,50.88,86.89,137.21,149.05,230.82,186.16,93.6,37.11,194.7,51.13,295.09,58.91,172.12,13.33,360.78,3.82,493.15-107.01,32.44-27.16,60.14-59.44,87.68-91.56,73.48-85.69,146.95-171.37,220.43-257.06l15.67-22.6Z" style="fill: #1d1d1b; stroke-width: 0px;"/>
  <path d="m1461.18,597.22c7.9,22.59,15.8,45.19,23.7,67.78.01.03.04.04.07.03,34.47-15.77,73.11,5.52,107.78-8.36,28.11-11.25,38.36-42.46,43.64-69.72,6.78-34.98,10.92-70.79,14.96-106.18,4.28-37.44,7.3-75.07,7.74-112.76.82-70.32-7.36-142.15-35.97-207.03-7.35-16.66-16-32.75-25.95-48-3.52-5.39-6.86-12.64-12.4-16.05s-13.75-4.37-20.33-3.86c-35.63,2.73-52.16,37.54-66.03,65.55-18.03,36.41-42.4,69.25-72.82,96.28-4.95,4.4-7.2,4.43-12.01-.33-3.23-3.2-6.48-6.4-9.72-9.58-7.17-7.03-14.38-14.03-21.64-20.97-13.91-13.3-28-26.41-42.35-39.23-56.77-50.73-118.03-97.56-186.6-131.25C1080.78,17.91,1002.92,1.86,922.43.2c-74.6-1.54-149.55,5.76-222.73,20.1-142.01,27.83-278.44,83.52-399.86,162.19-59.62,38.63-115.65,82.83-166.92,132.02-26.55,25.48-51.83,52.3-75.65,80.35-22.54,26.55-50.52,55.65-56.04,91.4-6.23,40.36,12.68,80.82,26.2,117.77,15.76,43.07,31.33,86.22,47.31,129.2,14.16,38.07,29.56,75.93,51.65,110.2,19.1,29.64,42.56,56.35,68.82,79.83,120.21,107.49,284.17,138.79,439.97,151.47,141.47,11.51,294.35,10.65,423.93-54.89,32.46-16.42,62.76-36.93,89.77-61.31,31.73-28.64,59.13-61.63,86.89-94.01,60.05-70.03,120.1-140.06,180.16-210.1,10.39-12.11,21.9-23.83,31.2-36.8,4.82-6.73,9.44-13.61,14.15-20.41.04-.05-.05-.1-.09-.05-29.3,42.25-64.87,79.98-98.32,118.98-45.57,53.14-91.14,106.28-136.71,159.43-40.51,47.25-81.8,93.27-135.2,126.31-46.74,28.92-98.88,48.12-152.38,60.09-112.14,25.09-229.4,20.63-342.97,9.06-123.38-12.57-249.09-39.71-352.98-110.82-46.29-31.68-87.38-71.49-117.53-118.99-35.75-56.32-55.39-121.93-78.16-184.16-11.68-31.92-24.04-63.68-34.87-95.9-10.98-32.66-18.14-68.04-2.75-100.55,12.39-26.17,33.45-48.78,52.19-70.58s37.09-41.48,56.79-61.11c78.24-77.95,168.25-143.94,265.68-195.89,97.44-51.96,202.42-89.9,310.71-111.65,54.96-11.04,110.76-17.9,166.77-20.31,66.04-2.84,133.12-.19,197.3,16.82,115.28,30.55,213.03,103.92,299.36,183.58,20.81,19.2,41.12,38.94,61.2,58.9.02.02.05.02.07,0,25.7-21.81,47.86-47.53,65.33-76.38s27.18-67.48,58.03-84.18c7.71-4.17,16.38-6.83,25.2-6.77,4.24.03,8.49.68,12.49,2.1,5.91,2.1,8.97,6.53,12.35,11.45,9.15,13.32,17.29,27.32,24.4,41.83,14.08,28.75,24.02,59.41,30.59,90.71,13.44,64.02,13.24,130.23,8.04,195.17-2.69,33.58-6.8,67.03-11.5,100.39-4.19,29.74-6.28,62.3-19.5,89.73-7.94,16.47-20.94,29.69-39.01,34.4-17.88,4.66-36.67,1.59-54.79.34-8.3-.57-16.69-.91-24.98,0-3.64.4-7.24,1.03-10.78,1.97-3.9,1.04-7.99,4.55-11.34.75-2.88-3.27-3.9-11.15-5.39-15.41-1.8-5.14-3.59-10.27-5.39-15.41-3.95-11.3-7.9-22.59-11.85-33.89-.02-.06-.12-.03-.1.03Z" style="fill: #1d1d1b; stroke-width: 0px;"/>
</svg>