<?xml version="1.0" encoding="UTF-8"?>
<svg id="Livello_1" data-name="Livello 1" xmlns="http://www.w3.org/2000/svg" width="1353.53" height="1080.05" viewBox="0 0 1353.53 1080.05">
  <path d="m415.12,1059.96c71.23,31.83,154.28,21.46,229.05-.8,74.77-22.26,146.43-55.76,223.2-69.63,110.32-19.93,225.3,1.77,335.09-20.9,42.25-8.73,84.8-25.09,113.64-57.17,44.19-49.14,46.04-125.42,21.94-186.96-24.1-61.53-69.71-111.76-114.36-160.48-43.5-47.46-87.02-94.96-133.08-139.94-161.14-157.4-353.05-283.17-561.68-368.1C452.37,24.81,371.72-1.22,289.06.1S120.76,33.88,71.95,100.6c-45.72,62.5-53.33,146.52-37.94,222.41,15.39,75.89,51.37,145.79,86.95,214.57-78.44-7.08-145.52,88.47-112.21,159.84,12.97,27.8,36.53,48.96,59.48,69.32,96.57,85.68,193.13,171.36,289.7,257.04l57.2,36.18Z" style="fill: #1d1d1b; stroke-width: 0px;"/>
  <path d="m415.09,1060c61.64,27.14,131.06,23.34,195.3,8.24,69.86-16.43,135.47-46.64,204.38-66.25,36.08-10.27,72.78-16.74,110.2-19.46,37.07-2.69,74.27-2.43,111.41-2.37,69.93.11,143.75.77,210.26-23.92,27.88-10.35,54.3-26.04,73.36-49.25,17.43-21.23,27.68-47.49,31.58-74.54,8.65-60.09-12.41-118.39-45.17-168.01-18.06-27.35-39.29-52.43-61.15-76.79-24.32-27.11-49.07-53.86-73.91-80.49-49.29-52.84-100.25-104-154.82-151.42-100.87-87.66-211.8-163.69-329.9-226.2-59.67-31.59-121.21-59.97-184.26-84.14C435.1,19.63,364.17-.67,291.54.02c-57.83.55-116.8,15.8-165.01,48.42-49.72,33.64-81.97,84.96-93.91,143.54-13.13,64.38-2.97,130.63,18.18,192.12,11.41,33.17,25.81,65.22,41.25,96.69,7.92,16.15,16.12,32.15,24.38,48.13.84,1.63,2.38,3.65,2.81,5.44.63,2.6.72,2.32-1.63,2.94-2.58.68-6.41-.15-9.14-.03-5.73.26-11.43,1.06-17.02,2.36-45.23,10.51-80.74,52.03-89.46,96.86-4.45,22.86-1.38,46.25,9.66,66.82,15.44,28.78,41.44,50.07,65.48,71.4,58.53,51.94,117.07,103.87,175.6,155.81,29.1,25.82,58.2,51.64,87.31,77.46,7.03,6.24,13.64,13.18,21.6,18.21,6.62,4.19,13.25,8.38,19.87,12.57,11.2,7.08,22.39,14.16,33.59,21.25.05.03.1-.05.05-.09-9.72-6.15-19.44-12.29-29.16-18.44s-21.28-11.76-30.02-19.49c-50.97-45.14-101.86-90.37-152.78-135.56-49.89-44.26-100.68-87.69-149.65-132.97-20.62-19.07-41.22-40.97-49.48-68.49-6.31-21.03-4.78-43.72,2.3-64.35,16.32-47.57,62.45-87.2,114.61-82.98.04,0,.06-.04.04-.08C73.04,444.82,22.66,346.4,27.1,239.02c2-48.38,15.23-96.93,43.64-136.65,26.97-37.72,66.26-64.94,109.23-81.5,97.91-37.74,204.4-17.93,300.2,16.4,96.34,34.52,189.32,80.08,277.39,132.05,87.45,51.61,170.43,110.82,247.64,176.78,82.19,70.21,155.76,149.12,228.48,228.9,64.37,70.62,132.6,155.26,117.81,257.43-6.83,47.17-33.24,86.71-74.96,110.04-45.62,25.51-100.16,32.76-151.55,35.82-55.67,3.32-111.47.61-167.19,2.45-54.57,1.81-107.33,9.94-159.54,26.05-100.47,31.01-199.83,81.67-307.94,72.07-25.93-2.3-51.32-8.45-75.16-18.95-.06-.03-.11.06-.05.09Z" style="fill: #1d1d1b; stroke-width: 0px;"/>
</svg>