<?xml version="1.0" encoding="UTF-8"?>
<svg id="Livello_1" data-name="Livello 1" xmlns="http://www.w3.org/2000/svg" width="1920.13" height="945.94" viewBox="0 0 1920.13 945.94">
  <path d="m1028.36,564.73c16.02-16.74,43.83-8.74,64.96.77,73.29,32.99,144.43,70.76,212.81,113.01,91.09,56.28,179.45,121.5,282.72,149.78,103.27,28.28,228.76,9.6,292-76.81,52.32-71.49,48.73-173.05,9.79-252.63-38.93-79.57-107.77-140.45-180.25-191.39-205.31-144.31-454.6-225.13-705.53-228.71-34.8-.5-70.07.4-103.85-7.96-31.71-7.85-60.82-23.54-90.48-37.23-69.65-32.16-156.77-52.14-219.21-7.57-65.3,46.6-84.31,151.41-161.94,171.64-51.33,13.38-103.07-18.68-155.99-22.27-52.52-3.56-106,23.71-133.95,68.31-7.77,12.39-13.88,26.2-24.65,36.08-13.39,12.29-31.99,16.74-48.11,25.14C21.52,328.42-1.07,382.72.04,433.64c1.11,50.91,21.86,99.22,44.82,144.68,54.47,107.85,125.36,210.33,223.25,281.17,97.88,70.84,225.93,106.61,342.45,74.63,98.96-27.17,179.43-98.76,247.88-175.22,50.17-56.04,96.06-115.91,137.14-178.92l32.78-15.25Z" style="fill: #1d1d1b; stroke-width: 0px;"/>
  <path d="m1028.39,564.76c17.61-16.9,44.11-8.31,63.66.23,21.52,9.4,42.71,19.67,63.74,30.1,42.89,21.27,84.95,44.2,126.05,68.73,76.38,45.58,148.63,98.93,229.79,136.06,68.64,31.4,143.16,48.77,218.61,36.84,67.38-10.66,131.39-45.78,164.54-107.27,35.83-66.48,31.05-149.34,1.99-217.33-31.65-74.01-90.84-132.71-153.83-180.9-137.74-105.39-300.51-179.4-469.04-219.12-84.94-20.02-171.97-31.28-259.22-33.23-48.56-1.08-96.42.43-142.52-17.42-39.9-15.45-76.7-37.17-117.92-49.4-35.55-10.55-74.02-16.13-110.73-8.55-33.74,6.96-61.45,25.81-83.25,52.04-38.56,46.38-62.35,119.25-124.3,140.08-42.73,14.37-86.34-4.72-127.77-14.6-36.53-8.71-72.84-7.82-107.2,8.53-16.53,7.86-31.67,18.68-44.3,31.93-13.29,13.94-21.01,30.78-31.88,46.4-13.85,19.91-34.81,25.44-55.43,35.61-15.2,7.49-28.33,18.43-38.71,31.8-49.98,64.32-29.71,149.44,1.51,217,34.96,75.66,79.16,148.74,133.56,212.05,53.83,62.64,119.28,115.59,195.74,147.88,73.28,30.95,155.85,43.22,234.1,25.68,78.67-17.63,146.76-64.37,204.7-118.88,65.47-61.59,122.79-132.92,173.75-206.81,6.34-9.19,12.52-18.49,18.71-27.78,3.19-4.8,5.35-5.56,10.39-7.9,8.42-3.92,16.85-7.84,25.27-11.76.06-.03,0-.11-.05-.09-8.42,3.92-16.85,7.84-25.27,11.76-2.32,1.08-5.47,1.93-7.51,3.5-2.36,1.8-4.23,6.45-5.83,8.86-3.24,4.9-6.52,9.78-9.82,14.64-26.75,39.37-55.39,77.44-85.81,114.05-53.45,64.34-112.14,127.2-183.58,171.82-70.5,44.04-151.28,63.88-234.09,53.84-83.6-10.14-162.58-46.53-228.15-98.79-64.42-51.33-116.44-116.6-159.27-186.59-21.7-35.47-41.76-72.29-58.89-110.2C11.8,507.04-2.88,462.55.53,417.49c2.82-37.39,18.16-75.71,47.5-100.09,15.57-12.94,34.34-18.23,51.94-27.49,17.1-9,26.01-23.22,35.48-39.47,20.47-35.14,53.78-60.78,93.33-70.85,42.54-10.82,82.23,2.63,123.2,13.31,33.49,8.73,68.67,13.03,100.22-4.32,24.5-13.47,42.18-36.19,57.57-58.95,17.81-26.34,33.32-54.47,54.36-78.49,25.18-28.74,58.15-46.22,96.3-50.1,39.59-4.02,79.86,5.2,116.86,18.77,39.8,14.6,76.25,37.71,117.19,49.28,43.73,12.36,90.02,8.75,134.93,10.29,43.6,1.5,87.12,5.31,130.33,11.38,170.13,23.9,335.38,82.65,482.18,171.93,133.31,81.08,287.66,201.86,277.62,375.68-2.28,39.36-14.12,78.35-37.02,110.69-20.91,29.53-50.12,52.2-82.94,67.13-65.74,29.9-143.45,30.7-212.3,11.58-84.97-23.59-159.83-72.12-233.38-119.16-76.72-49.07-155.38-94.32-237.98-132.84-24.31-11.34-63.38-34.33-87.58-11.1-.05.04.02.12.07.07Z" style="fill: #1d1d1b; stroke-width: 0px;"/>
</svg>