<?xml version="1.0" encoding="UTF-8"?>
<svg id="Livello_1" data-name="Livello 1" xmlns="http://www.w3.org/2000/svg" width="1920.04" height="1017.98" viewBox="0 0 1920.04 1017.98">
  <path d="m1188.77,655.4c-24.6,15.08-49.2,30.16-73.8,45.23,66.46,63.93,57.22,182.69-7.18,248.68-64.41,66-168.33,82.31-257.27,57.96-88.94-24.35-164.54-83.7-227.52-151.07-45.72-48.91-86.34-102.85-136.8-146.85-59.6-51.96-130.91-88.3-201.41-124.1C189.96,537.11,95.14,488.96.32,440.81c-4.18-92.61,35.27-199.13,123.82-226.58,32.19-9.98,66.64-8.14,100.34-8.86,104.29-2.24,206.18-29.83,306.83-57.24,37.91-10.32,77.29-21.42,106.67-47.5,30.94-27.46,48.61-69.76,85.1-89.27,40.63-21.73,90.31-8.09,134.19,5.97,237.26,76,474.53,152,711.79,228,26.41,8.46,55.69,19.37,67.22,44.59,6.56,14.35,6.03,31.01,11.54,45.79,15.99,42.86,70.83,51.66,113.99,66.83,77.2,27.15,137.82,96.97,153.87,177.21,16.05,80.25-13.06,168.01-73.89,222.76-33.47,30.13-76.96,50.69-121.99,50.58-40.66-.1-79.27-16.56-116.57-32.73-112.23-48.66-224.46-97.31-336.69-145.97-17.37-7.53-34.73-15.06-52.1-22.59l-25.65,3.58Z" style="fill: #1d1d1b; stroke-width: 0px;"/>
  <path d="m1188.74,655.36c-24.6,15.08-49.2,30.16-73.8,45.23-.03.02-.03.06-.01.08,48.51,47.54,56.09,122.55,33.06,184.27-25.51,68.37-88.42,112.15-158.26,126.9-74.54,15.74-150.87-.55-217.31-36.13-70.23-37.61-127.45-93.61-179.53-153.02-28.14-32.1-55.58-64.92-86.3-94.64-28.98-28.03-61.17-52.23-95.27-73.66-73.79-46.37-153.88-83.08-231.49-122.49-41.2-20.92-82.41-41.85-123.61-62.77-9.6-4.87-19.19-9.74-28.79-14.62-5.08-2.58-10.16-5.16-15.24-7.74-7.02-3.56-11.91-5.27-12.07-13.65-.31-16.48.72-33.01,3.09-49.32,9-62.03,38.13-127.88,95.64-158.91,37.74-20.36,80.55-18.7,122.14-19.41,43.44-.75,86.66-5.86,129.38-13.62,44.15-8.01,87.75-18.76,131.11-30.24,38.94-10.31,79.84-18.84,116.62-35.67,16.1-7.36,31.27-16.79,44.05-29.12,11.98-11.55,21.87-25,31.98-38.16,11.61-15.11,23.69-30.4,39.46-41.42C730.6,5.38,750.82.18,771.42.05c43.08-.26,85.36,17.18,125.77,30.13,43.58,13.96,87.16,27.92,130.74,41.88,177.95,57,355.89,114,533.84,171,17.06,5.47,34.63,10.74,49.89,20.4,18.61,11.78,26.91,28,30.72,49.21,2.73,15.23,6.03,29.43,16.14,41.56,8.72,10.47,20.45,17.94,32.65,23.75,29.31,13.96,61.84,19.28,91.23,33.05,31.12,14.58,58.83,36.19,81.05,62.36,48.43,57.06,67.23,133.29,50.02,206.22-17.67,74.9-72.22,143.75-147.49,166.47-42.51,12.83-84.85,5.15-125.52-10.33-43.44-16.53-85.76-36.48-128.4-54.97-85.31-36.98-170.62-73.97-255.93-110.95-10.42-4.52-20.84-9.04-31.26-13.55-3.89-1.69-7.71-4.17-11.88-4.32-7.78-.28-16.49,2.3-24.23,3.38-.06,0-.04.11.03.1,5.77-.81,11.55-1.61,17.32-2.42,2.32-.32,5.33-1.3,7.68-1.07,6.26.61,13.89,5.66,19.72,8.19,29.7,12.88,59.41,25.76,89.11,38.63,59.62,25.85,119.25,51.7,178.87,77.55,29.81,12.92,59.62,25.85,89.43,38.77,26.51,11.49,53.01,23.63,81,31.15,51.87,13.93,103.45,4.24,147.63-26.13,78.77-54.14,117.08-158.84,93.71-251.25-11.17-44.17-35.79-84.61-68.93-115.75-16.57-15.57-35.32-28.86-55.62-39.13s-40.47-15.9-61.28-22.51c-21.57-6.86-44.33-14.47-61.52-29.81-9.22-8.23-15.99-18.6-19.51-30.47-3.74-12.61-4.04-26.08-8.85-38.4-7.55-19.36-25.58-30.93-43.97-38.71-25.45-10.76-52.69-17.85-78.98-26.27-123.47-39.55-246.95-79.1-370.42-118.65-61.74-19.78-123.47-39.55-185.21-59.33-30.87-9.89-61.74-19.78-92.61-29.66-25.81-8.27-51.89-16.84-79.01-19.48-24.36-2.37-49.37.79-70.33,14.15-18.67,11.9-32.29,29.81-45.57,47.16-16.71,21.83-33.7,42.05-57.91,55.92-24.55,14.06-52.04,21.88-79.16,29.29-60.27,16.49-120.7,32.93-182.22,44.2-31.9,5.85-64.09,10.27-96.46,12.47-30.18,2.05-60.5.53-90.64,2.93-44.93,3.59-84.13,21.91-112.81,57.07-26.54,32.53-41.65,73.57-48.33,114.68-3.34,20.56-4.49,41.41-3.64,62.22,0,.02,0,.04.02.04,59.26,30.09,118.53,60.19,177.79,90.28,56.73,28.81,113.94,56.85,170.01,86.94,52.75,28.31,104.16,59.86,148.37,100.56,44.66,41.11,81.83,89.34,122.96,133.8,71.41,77.2,161.83,147.7,268.93,162.67,90.29,12.61,195.4-16.26,244.59-98.54,22.08-36.94,31.69-81.62,26.27-124.34-2.59-20.44-8.76-40.49-18.8-58.51-5.13-9.2-11.25-17.87-18.29-25.71-1.11-1.24-4.96-4.05-5.29-5.59-.81-3.73,5.42-6.19,7.77-7.63,7.49-4.59,14.97-9.18,22.46-13.77,13.9-8.52,27.81-17.05,41.71-25.57.05-.03,0-.12-.05-.09Z" style="fill: #1d1d1b; stroke-width: 0px;"/>
</svg>