<?xml version="1.0" encoding="UTF-8"?>
<svg id="Livello_1" data-name="Livello 1" xmlns="http://www.w3.org/2000/svg" width="855.85" height="1080.03" viewBox="0 0 855.85 1080.03">
  <path d="m416.74,1063.29c62.19-47.22,124.37-94.45,186.56-141.67,60.24-45.75,121.89-93.02,161.46-157.49,72.73-118.49,57.01-268.4,77.93-405.85,4.72-31.03,11.43-61.86,12.86-93.21,3-65.85-17.83-131.54-52.6-187.55-6.13-9.87-13.31-20.01-24.08-24.38-18.45-7.48-38.64,4.69-54.22,17.09-59.42,47.29-112.33,108.1-185.13,129.72-49.01,14.56-101.43,9.39-152.29,4.1-49.43-5.15-99.54-10.45-145.92-28.32-46.38-17.87-89.37-50.13-109.21-95.7-8.86-20.36-13.13-43.17-26.72-60.73C91.81,1.74,63.46-7.63,47.61,7.92c-6.56,6.43-9.49,15.66-11.34,24.65-10.19,49.62,5.92,100.54,7.22,151.17.96,37.3-6.15,74.27-13.1,110.93-24.22,127.8-46.72,260.75-13.86,386.61,14.29,54.72,38.64,106.2,62.85,157.31,24.47,51.65,49.98,104.72,92.34,143.11,24.42,22.13,53.53,38.46,83.45,52.26,45.1,20.81,92.66,36.31,141.36,46.08l20.22-16.75Z" style="fill: #1d1d1b; stroke-width: 0px;"/>
  <path d="m416.77,1063.33c50.88-38.64,101.76-77.28,152.64-115.91,44.6-33.87,90.46-66.79,131.03-105.56,38.26-36.56,69.71-78.7,89.57-127.99,19.6-48.64,28.49-100.78,33.98-152.7,5.69-53.92,7.77-108.14,13.54-162.05,6.25-58.37,22.85-116.27,16.92-175.34-2.75-27.46-9.34-54.5-18.97-80.35s-21.46-50.81-37.06-72.96c-6.07-8.62-13.8-16.54-24.44-18.92-11.46-2.55-23.12,1.7-32.98,7.33-10.74,6.12-20.22,14.29-29.67,22.19-10.18,8.51-20.16,17.27-30.13,26.02-38.88,34.13-78.81,69.75-127.96,88.2-56.35,21.15-117.5,13.84-175.89,7.68s-117.46-13.62-168.76-42.75c-21.8-12.38-41.8-28.41-57.27-48.24-8.39-10.75-15.35-22.57-20.51-35.2-4.89-11.96-8.4-24.43-13.43-36.34C109.1,20.89,95.01,3,72.55.27c-8.55-1.04-17.39.85-23.95,6.66-8.89,7.87-11.64,20.39-13.48,31.59-4.82,29.38-1.02,59.22,2.81,88.48,4.01,30.69,7.02,60.92,4.27,91.88s-9.44,62.67-15.25,93.79-11,60.4-15.45,90.78c-8.73,59.6-14.05,120.05-10.26,180.3,1.86,29.52,5.93,58.92,12.78,87.71s17.07,58.13,28.61,86.12c11.31,27.42,24,54.24,36.7,81.04,11.53,24.32,23.13,48.66,36.73,71.91,13.01,22.24,27.91,43.52,45.99,61.94,19.07,19.43,41.61,34.89,65.5,47.8,50.83,27.47,106.67,46.74,163.13,58.61,2.4.5,4.48,1.63,6.55.64,2.31-1.1,4.67-3.87,6.62-5.48,4.31-3.57,8.63-7.15,12.94-10.72.05-.04-.02-.11-.07-.07-4.31,3.57-8.63,7.15-12.94,10.72-1.91,1.58-4.33,4.45-6.62,5.48-1.49.67-2.75.1-4.5-.26-3.89-.79-7.78-1.65-11.65-2.53-28.42-6.44-56.4-14.84-83.67-25.12-52.37-19.73-105.24-45.17-143.08-87.57-35.37-39.62-57.55-88.83-80.01-136.37-25.58-54.14-50.37-109.15-62.77-168.04-24.89-118.2-4.57-239.96,17.47-356.89,5.49-29.14,11.42-58.31,13.72-87.93s-.98-59.83-4.88-89.78c-3.81-29.24-7.41-59.11-2.21-88.41,2.42-13.6,7-28.91,21.11-34.44,10.91-4.28,23.46-1.37,33.36,4.16,23.79,13.29,29.83,42.07,38.75,65.62,8.21,21.66,21.08,40.91,37.66,57.08,36.36,35.47,84.94,53.72,133.98,63.4,28.02,5.53,56.46,8.56,84.84,11.52,29.15,3.04,58.42,6.1,87.78,5.54,27.6-.52,55.12-4.51,81.02-14.35,22.69-8.62,43.7-21.11,63.34-35.28s37.89-29.9,56.04-45.79c19.46-17.04,38.55-35.48,59.89-50.19,11.6-7.99,26.12-15.42,40.62-12.18s22.81,15.84,29.96,27.49c14.81,24.11,26.98,49.89,35.84,76.77,8.82,26.77,14.35,54.67,15.71,82.84,1.44,29.81-2.74,59.2-7.7,88.52-8.98,53.16-13.77,106.4-17.67,160.14-7.52,103.7-16.91,212.6-80.53,299.18-31.97,43.51-73.55,78.77-115.93,111.73-47.88,37.24-96.54,73.51-144.84,110.19-24.03,18.25-48.05,36.49-72.08,54.74-.05.04,0,.13.05.09Z" style="fill: #1d1d1b; stroke-width: 0px;"/>
</svg>