<?xml version="1.0" encoding="UTF-8"?>
<svg id="Livello_1" data-name="Livello 1" xmlns="http://www.w3.org/2000/svg" width="674" height="1080.08" viewBox="0 0 674 1080.08">
  <path d="m657.47,597.81c7.13-199.2,12.63-398.46,16.48-597.76-110.11,15.7-197.64,126.61-187.33,237.36,2.04,21.95,6.92,46.07-5.13,64.53-9.68,14.84-27.66,21.54-44.46,27.19-41.26,13.88-82.77,27.01-124.51,39.37-15.42,4.57-31.63,9.07-47.37,5.78-22.08-4.61-38.05-23.2-52.63-40.41-25.39-29.95-53.21-59.92-89.65-74.54-36.44-14.62-83.76-9.37-107.24,22.1-31.36,42.03-6.43,100.42,1.91,152.19,5.26,32.66,3.24,65.99,4.22,99.06,1.83,61.6,14.09,122.36,26.3,182.77,13.95,68.99,28.39,139.3,63.18,200.48,47.7,83.88,133.6,145,228.48,162.57,8.65,1.6,17.92,2.8,25.99-.71,12.28-5.34,17.73-19.47,21.73-32.25,22.65-72.35,38.72-146.76,47.93-222.01,4.19-34.27,7.11-69.3,20.27-101.22,30.81-74.78,112.6-117.59,192.73-128.52l9.1,4.02Z" style="fill: #1d1d1b; stroke-width: 0px;"/>
  <path d="m657.52,597.81c2.78-77.75,5.32-155.5,7.6-233.26,2.28-77.76,4.32-155.53,6.11-233.31,1-43.73,1.93-87.45,2.77-131.18,0-.04-.03-.05-.06-.05-70.99,10.42-132.17,59.56-164.3,122.81-15.79,31.1-24.61,65.92-23.85,100.88.45,20.69,6.47,42.06,2.01,62.62-4.99,23.03-24.88,33.7-45.41,40.92-22.97,8.08-46.24,15.41-69.46,22.73s-47.84,15.55-72.12,21.77c-12.4,3.18-25.45,5.19-38.05,1.92-10.58-2.74-19.85-8.81-27.96-15.99-15.28-13.55-27.39-30.46-41.24-45.4-25.89-27.92-57.55-54.47-96.55-59.77-32.93-4.48-69.21,6.29-86.41,36.53-19.43,34.17-7.73,76.52.32,112.24,5.16,22.88,9.04,45.57,9.94,69.06.96,24.97.06,49.97,1.36,74.93,2.57,49.35,11.39,98.1,21.02,146.49,9.08,45.61,17.76,91.52,31.25,136.08,12.4,40.94,29.35,80.7,54.29,115.65,22,30.83,49.35,57.78,80.31,79.58,31.39,22.11,66.53,38.97,103.55,49.23,9.22,2.56,18.57,4.73,27.99,6.42,8.97,1.6,18.74,2.67,27.08-1.86,15.4-8.38,19.43-29.88,24.02-45.14,14.18-47.2,25.57-95.23,34.09-143.76,4.1-23.32,7.5-46.75,10.3-70.25s5.35-48.04,11.56-71.38c10.26-38.58,32.57-71.53,63.63-96.44,29.95-24.02,65.9-40.13,102.99-49.45,8.94-2.25,17.98-4.1,27.09-5.55,3.55-.57,6.3-1.32,9.6.13l6.45,2.85c.06.03.11-.06.05-.09-2.4-1.06-4.81-2.41-7.3-3.23-2.9-.96-4.8-.4-8.05.11-10.94,1.72-21.78,4.01-32.48,6.87-20.95,5.61-41.35,13.4-60.53,23.54-37.3,19.72-70.28,49.03-89.07,87.29-11.41,23.22-16.67,48.73-20.21,74.19-3.88,28.01-6.72,56.12-11.22,84.05-9.22,57.16-22.39,113.67-39.42,169.01-3.46,11.23-6.76,23.8-15.28,32.4-11.05,11.15-26.83,8.04-40.63,5.18-22.66-4.68-44.8-11.86-65.96-21.22-42.09-18.63-80.35-45.91-111.67-79.65-34.72-37.4-58.85-82.13-75.24-130.26-17.62-51.77-27.55-105.94-38.13-159.48-11.59-58.63-20.57-117.25-20.84-177.14-.12-28.21-.11-56.4-5.38-84.23-4.66-24.66-11.81-48.89-14.67-73.87-2.71-23.66-1-48.53,13.24-68.51,13.2-18.52,34.8-28.43,57.02-30.69,50.24-5.1,91.58,27.21,123.63,62.2,15.42,16.83,28.89,36.85,47.79,50.08,8.91,6.24,19.02,10.32,29.94,10.96,13.47.78,26.7-3.04,39.48-6.81,28.28-8.35,56.45-17.1,84.5-26.17,13.87-4.49,27.73-9.02,41.54-13.71,10.22-3.48,20.56-7.26,29.54-13.38,19.47-13.26,22.51-34.71,20.71-56.68-.95-11.65-2.69-23.2-2.94-34.91-.24-11.12.49-22.25,2.1-33.26,6.34-43.18,26.31-83.97,54.98-116.7s66.41-57.85,108.61-69.07c4.9-1.3,9.85-2.42,14.84-3.33,2.46-.45,6.31-2.2,7.43.87.31.85-.06,3.24-.08,4.3-.06,2.87-.11,5.74-.17,8.6-.3,15.05-.6,30.11-.92,45.16-.62,29.75-1.29,59.5-1.98,89.25-2.82,120.07-6.23,240.12-10.24,360.15-.98,29.38-2,58.76-3.05,88.14,0,.06.1.06.1,0Z" style="fill: #1d1d1b; stroke-width: 0px;"/>
</svg>