<?xml version="1.0" encoding="UTF-8"?>
<svg id="Livello_1" data-name="Livello 1" xmlns="http://www.w3.org/2000/svg" width="505.24" height="1080.1" viewBox="0 0 505.24 1080.1">
  <path d="m200.67,1080.05c-21.19-9.02-37.05-27.18-50.3-46.02-34.26-48.7-55.83-104.99-77.06-160.62-11.71-30.7-23.43-61.4-35.14-92.1,30.74,2.12,59.34-14.36,85.73-30.27,38.95-23.48,82.38-54.02,85-99.42.98-16.95-4.17-33.56-8.73-49.91-31.28-112.22-37-230.38-68.87-342.44-3.68-12.95-7.95-26.24-16.9-36.3-7.86-8.85-18.65-14.43-28.69-20.68C38.3,172.77,2.85,121.57.11,65.79c-.24-4.86-.18-9.99,2.19-14.24,3.15-5.66,9.6-8.5,15.64-10.85C89.49,12.83,166.46-1.03,243.23.12c7.16.11,14.75.48,20.67,4.5,7.33,4.98,10.26,14.25,12.06,22.93,8.21,39.62,2.79,81.92-15.14,118.19-12.24,24.76-30.23,47.12-36.79,73.95-6.87,28.08-.37,57.47,5.51,85.77,26.49,127.54,40.38,257.69,41.42,387.94,46.18-9.13,92.36-18.26,138.54-27.39,2.18-.43,4.5-.85,6.59-.08,3.2,1.19,4.77,4.71,6.01,7.89,25.66,65.92,51.32,131.84,76.97,197.77,6.24,16.03,11.04,37.58-2.91,47.65-5.98,4.32-13.79,4.92-21.16,5.17-56.25,1.97-114.73-6.73-167.32,13.31-55.9,21.31-97.48,76.11-102.94,135.69l-4.05,6.64Z" style="fill: #1d1d1b; stroke-width: 0px;"/>
  <path d="m200.7,1080.01c-31.83-13.98-52.25-46.43-69.03-75.39-18.51-31.95-32.98-66.03-46.43-100.36-14.05-35.87-27.56-71.95-41.29-107.94-.89-2.34-1.78-4.67-2.67-7.01-.48-1.27-2.56-4.73-2.29-6.01.65-3.09,10.32-1.92,13.15-2.21,8.02-.83,15.89-2.79,23.5-5.44,16.22-5.65,31.19-14.3,45.86-23.11,24.52-14.72,49.7-30.71,67.8-53.28,8.08-10.08,14.5-21.57,17.62-34.16,3.94-15.9,1.65-31.99-2.35-47.63-4.75-18.56-10.12-36.92-14.4-55.62-4.28-18.69-8.03-37.51-11.48-56.37-6.85-37.45-12.52-75.1-18.83-112.65s-13.37-75.58-22.88-112.75c-4.11-16.05-7.66-33.39-15.97-47.92-7.96-13.92-21.29-21.29-34.51-29.46-26.85-16.61-49.75-39.79-65.39-67.27-7.8-13.7-13.75-28.46-17.32-43.83-1.84-7.95-3.04-16.05-3.53-24.19-.32-5.27-.56-11.08,2.09-15.86,2.38-4.29,6.75-6.95,11.07-8.94,17.22-7.95,36.09-13.47,54.27-18.76,18.11-5.26,36.47-9.67,54.99-13.2C160.06,3.56,198.11-.01,236.16.1c9.62.03,20.94-.83,28.92,5.51,6.91,5.49,9.34,14.58,11.02,22.87,3.64,17.96,4.45,36.48,2.58,54.7s-6.76,37.39-14.31,54.79c-6.92,15.94-16.54,30.44-25.03,45.54s-15,29.65-17.27,46.24c-2.44,17.76-.27,35.77,2.92,53.29,7.05,38.69,15.44,77.05,21.58,115.91,12.37,78.24,20.06,157.21,23.01,236.36.72,19.35,1.15,38.71,1.31,58.07,0,.03.03.05.06.05,29.39-5.81,58.77-11.62,88.16-17.43,14.69-2.9,29.39-5.81,44.08-8.71,4.67-.92,11.11-3.47,15.21.19,2.81,2.5,3.88,7,5.18,10.33,2.85,7.32,5.7,14.65,8.55,21.97,21.51,55.27,43.02,110.54,64.53,165.8,4.17,10.71,8.55,21.78,8.46,33.47-.04,5.35-1.13,10.87-4.26,15.31-4.78,6.8-12.86,9.04-20.75,9.69-27.26,2.26-54.97-.15-82.29.05-25.96.19-52.2,1.88-77.24,9.2-21.05,6.15-40.56,16.51-57.39,30.59-18.49,15.46-33.6,35-43.92,56.78-4.93,10.41-8.78,21.33-11.37,32.55-1.3,5.62-2.23,11.31-2.93,17.03-.47,3.89-2.34,6.44-4.37,9.75-.03.06.05.11.09.05,1.14-1.87,2.59-3.76,3.5-5.75,1.29-2.83,1.13-6.4,1.59-9.49,1.36-9.06,3.56-17.98,6.5-26.65,6.23-18.36,15.79-35.53,27.91-50.65,25.29-31.55,60.61-51.52,100.23-58.76,45.7-8.35,91.96-1.61,137.97-4.47,7.82-.49,15.96-2.07,21.32-8.29,4.37-5.07,5.66-11.85,5.5-18.37-.2-7.98-2.38-15.89-5.09-23.35-4.11-11.31-8.71-22.47-13.08-33.68-18.01-46.28-36.03-92.56-54.04-138.84-3.99-10.26-7.13-21.72-12.41-31.38-4.23-7.74-12.5-4.15-19.52-2.77-24.49,4.84-48.98,9.68-73.47,14.52-11.89,2.35-23.79,4.7-35.68,7.05-2.8.55-5.6,1.11-8.4,1.66-2.63.52-6.75,2.08-9.45,1.87-4.28-.34-3.13-4.35-3.17-7.78-.04-3.17-.09-6.34-.14-9.5-.42-24.64-1.3-49.27-2.64-73.88-2.66-48.86-7.12-97.63-13.37-146.16-6.16-47.84-14.07-95.46-23.7-142.72-4.87-23.92-10.94-48.16-9.81-72.75s11.26-44.77,23.26-65.17c10.83-18.42,21.26-36.62,27.44-57.21,6.18-20.59,8.71-42.26,7.5-63.72-.56-9.84-1.8-19.8-4.13-29.39-1.76-7.22-4.56-14.84-10.77-19.42C256.85-.65,246.24.05,237.17,0c-11.45-.06-22.9.23-34.33.83-46.41,2.47-92.53,10.39-137.12,23.5-10.98,3.23-21.87,6.78-32.65,10.64-8.7,3.12-19.41,5.72-26.69,11.72C-.48,52.34-.33,60.91.26,69.06c.65,8.96,2.14,17.84,4.4,26.54,9.31,35.83,31.36,67.76,59.67,91.3,6.99,5.81,14.38,11.12,22.11,15.9,9.27,5.73,19.12,10.94,26.73,18.91,7.75,8.11,12.18,18.59,15.56,29.13,3.61,11.27,6.54,22.79,9.4,34.27,23.09,92.53,31.21,187.97,52.86,280.8,2.64,11.34,5.49,22.63,8.59,33.85,3.43,12.44,7.34,24.86,8.8,37.72,2.26,19.79-3.01,38.72-14.21,55.07-10.78,15.72-25.56,28.37-40.95,39.4-16.14,11.57-33.33,22.06-50.81,31.48-19.85,10.69-41.31,19.14-64.24,17.84-.03,0-.06.03-.05.06,17.37,45.53,34.22,91.31,52.41,136.53,16.69,41.48,35.54,82.63,61.81,119.02,12.79,17.71,27.97,34.28,48.31,43.21.06.03.11-.06.05-.09Z" style="fill: #1d1d1b; stroke-width: 0px;"/>
</svg>