<?xml version="1.0" encoding="UTF-8"?>
<svg id="Livello_1" data-name="Livello 1" xmlns="http://www.w3.org/2000/svg" width="1920.08" height="1033.45" viewBox="0 0 1920.08 1033.45">
  <path d="m1893.33,685.02c-13.81-58.2-57.08-113.67-116.2-122.84-32.34-5.02-65.76,4.03-97.96-1.84-85.94-15.68-117.92-121.34-124.34-208.45-6.41-87.12-12.89-190.05-87.19-236-61.65-38.13-140.92-17.39-213.28-21.76-87.9-5.32-168.18-48.98-252.2-75.29-84.02-26.32-185.78-31.62-250.22,28.38-27.21,25.33-44.68,59.76-72.07,84.88-80.48,73.81-212.35,43.54-309.75,92.89-32.33,16.38-153.63,65.59-211.09,180.65-21.62,43.3-10.55,47.98-38.01,108.46-52.39,115.42-104.02,123.3-117.75,192.68-12.87,65.04,13.38,154.78,71.82,189.37,89.44,52.93,205.97-51.93,265.36,3.29,39.05,36.31,6.72,98.41,48.17,123.1,35.63,21.21,69.08-18.95,160.56-10.71,37.79,3.4,33.98,10.43,80.28,16.06,54.27,6.6,90.21.69,149.85-5.35,51.59-5.22,103.48-7.03,155.21-10.71,254.57-18.11,356,63.63,448.82-9.06,50.77-39.76,22.77-66.05,75.68-103.34,52.17-36.76,112.94-34.84,327.81-47.57.02,0,65.01-8.13,98.95-32.46,7.42-5.32,26.59-25.24,26.59-25.24l4.66-17.57,3.02-26.19c-8.92-21.8-17.83-43.59-26.75-65.39Z" style="fill: #1d1d1b; stroke-width: 0px;"/>
  <path d="m1893.38,685.01c-10.24-41.76-34.24-82.04-71.04-105.53-18.93-12.08-40.22-18.2-62.62-18.86-29.25-.87-58.76,5.33-87.63-1.86-86.56-21.55-111.39-130.63-117.2-206.88s-8.56-177.02-76.57-228.73c-40.33-30.66-92-32.05-140.52-30.34-26.74.94-53.52,2.8-80.28,1.44-29.45-1.5-58.45-7.4-86.73-15.57C1071.39,49.94,977.88-5.92,871.14.52c-43.54,2.63-86.83,16.51-119.23,46.66-19.53,18.17-33.9,40.87-50.56,61.5-15.25,18.89-32.84,34.97-54.21,46.69-81.98,44.97-182.41,27.26-267.11,64.86-58.13,25.8-115.05,57.89-160.51,102.89-29.91,29.6-56.47,65.71-70.54,105.69-4.89,13.89-7.31,28.46-11.53,42.54-7.41,24.78-18.42,48.61-30.57,71.39-19.56,36.68-45.46,67.31-71.35,99.44-19.45,24.15-31.79,50.13-34.71,81.32-6.95,74.34,30.15,173.09,112.68,186.44,38.32,6.2,76.97-5.39,113.67-15.12,32.17-8.52,73.34-21.52,104.17-2.32,20.33,12.67,28.11,34.72,30.79,57.41,2.01,17.08,1.45,35.43,8.25,51.56,11.59,27.49,39.06,30.04,64.49,23.98,15.91-3.79,31.55-8.44,47.7-11.17,24.74-4.19,50.14-4.64,75.04-1.51,16.46,2.07,31.75,8,47.91,11.36,24.41,5.08,49.76,6.93,74.66,6.68,25.89-.27,51.65-3.2,77.37-5.95,31.17-3.33,62.36-5.93,93.64-7.87,58-3.58,116.1-8.6,174.24-7.7,45.02.7,89.85,4.62,134.48,10.39,33.43,4.33,66.79,9.99,100.42,12.64,54.3,4.28,115.13-5.86,147.59-55.22,9.7-14.76,12.78-32.45,21.73-47.55,9.49-16.01,24.66-27.99,40.56-37.27,17.27-10.08,36.38-16.12,55.9-20.08,29.46-5.98,59.66-8.21,89.59-10.32,47.29-3.32,94.65-5.58,141.97-8.28,32.94-1.88,64.11-6.19,95.37-17.71,16.62-6.12,31.23-14.16,44.05-26.4,4.57-4.37,11.58-9.37,14.87-14.83,1.99-3.31,2.49-8.11,3.49-11.88,2.52-9.51,4.27-20.09,4.38-29.9.1-8.73-6.26-18.5-9.57-26.59-5.63-13.77-11.26-27.53-16.89-41.3-.02-.06-.12-.03-.1.03,5.63,13.77,11.26,27.53,16.89,41.3,4.16,10.16,10.34,19.81,9.07,30.87s-2.18,22.93-6.08,33.88c-1.65,4.64-4.73,7.11-8.31,10.7-6.07,6.08-12.15,12.48-19.07,17.59-16.69,12.33-37.8,18.98-57.65,24.19-36.44,9.57-73.09,10.14-110.58,12.22-41.71,2.32-83.46,4.31-125.09,7.81-43.15,3.63-89.5,7.74-126.98,31.5-14.07,8.92-27.32,19.97-35.9,34.45-8.54,14.41-11.62,31.27-20.45,45.55-16.84,27.24-48.51,46.45-79.3,53.8-25.6,6.11-52.32,5.09-78.31,2.59-33.77-3.25-67.27-8.87-100.92-13.05-43.61-5.42-87.43-8.87-131.39-9.28-58.56-.55-117.17,4.52-175.57,8.25-54.44,3.47-108.87,12.78-163.44,13.34-25.64.26-51.83-1.64-76.91-7.16-14.53-3.2-28.36-8.49-43.17-10.55-40.69-5.66-79.16.55-118.44,10.64-12.72,3.27-26.31,6.9-39.47,4.17-19.45-4.03-31.45-20-35.46-38.68-7.27-33.88-.69-73.6-33.77-95.71-26.41-17.65-61.3-9.9-89.86-2.83-37.81,9.36-76.05,22.78-115.54,20.71-45.64-2.39-81.1-30.41-102.4-69.72s-29.58-84.7-23.07-127.75c5.01-33.06,21.99-58.11,43.07-83.13,26.28-31.18,49.83-63.4,68.05-100.07,10.24-20.61,19.57-41.93,25.73-64.15,3.83-13.81,6.37-27.91,11.47-41.35,29.61-78.06,98.1-136,169.57-175,23.33-12.73,47.89-25.67,72.79-35.03,42.99-16.16,89.24-20.49,134.39-26.78,41.87-5.83,85.07-13.03,122.32-34.18,20.39-11.58,37.24-27.22,51.92-45.42,15.99-19.83,29.86-41.52,48.25-59.31,73.21-70.83,188.15-53.28,275.31-22.99,51.97,18.06,102.39,40.79,155.63,55.08,26.18,7.03,52.95,11.85,80.06,12.97,25.71,1.06,51.43-.68,77.12-1.58,51.09-1.8,105.55.2,146.38,35.09,33.55,28.67,49.46,71.65,58.03,113.78,16.64,81.79,7.01,168.11,46.61,244.42,16.04,30.92,40.44,58.45,74.17,69.98,24.58,8.4,50.2,6.06,75.68,4.89,26.9-1.24,52.71,1.13,76.68,14.37,40.64,22.44,67.11,65.4,77.95,109.6.02.06.11.04.1-.03Z" style="fill: #1d1d1b; stroke-width: 0px;"/>
</svg>