<?xml version="1.0" encoding="UTF-8"?>
<svg id="Livello_1" data-name="Livello 1" xmlns="http://www.w3.org/2000/svg" width="1920.4" height="712.05" viewBox="0 0 1920.4 712.05">
  <path d="m1675.42,680.1c78.62-81.96,157.24-163.93,235.86-245.89,3.87-4.03,7.92-8.41,8.88-13.92,1.86-10.64-8.16-19.24-17.08-25.32-78.2-53.28-164.28-111.16-190.81-201.99-11.07-37.89-14.06-84.3-47.83-104.74-12.92-7.82-28.33-10.15-43.28-12.32-98.52-14.31-197.04-28.62-295.56-42.93C1186.06,12.71,1045.19-7.61,904.57,2.83c-162.76,12.09-322.22,66.15-458.77,155.54-72.87,47.71-145.91,107.62-232.99,109.47-28.24.6-56.77-5.13-84.57-.1-27.8,5.03-56.08,25.65-56.63,53.89-.3,15.5,7.75,29.9,16.71,42.54,27.8,39.21,67.12,70.15,111.77,87.95-63.34,18.3-123.92,46.13-179.07,82.26-9.56,6.26-19.9,14.36-20.6,25.76-1.15,18.66,22.37,27.36,40.84,30.23,71.4,11.08,142.8,22.17,214.2,33.25,48.36,7.51,112.28,6.45,128.79-39.62,57.69,19.37,115.38,38.74,173.08,58.1,60.77,20.4,121.96,40.9,185.42,49.98,69.63,9.95,140.38,5.93,210.66,3.23,229.74-8.84,460.03-3.34,689.09,16.45l32.91-31.66Z" style="fill: #1d1d1b; stroke-width: 0px;"/>
  <path d="m1675.46,680.13c61.84-64.47,123.67-128.93,185.51-193.4,15.02-15.66,30.03-31.31,45.05-46.97,8.18-8.53,19.08-17.95,11.92-30.57s-22.94-19.77-34.1-27.42c-13.8-9.47-27.53-19.04-40.99-28.99-55.73-41.17-110.38-91.21-130.52-159.82-8.26-28.12-10.92-59.52-27.34-84.56-19.44-29.64-54.52-31.19-86.55-35.84-88.42-12.84-176.83-25.69-265.25-38.53-84.83-12.32-169.76-24.83-255.34-30.68-83.37-5.7-167.2-4.65-249.89,8.24-76.2,11.88-150.98,32.9-222.25,62.38-71.01,29.37-136.11,67.95-199.54,111.01-61.29,41.6-127.35,84.78-204.42,82.77-35.61-.93-74.47-8.47-105.75,13.27-25.43,17.66-30.14,45.48-14.99,71.93,16.5,28.82,42.1,53.59,69.21,72.39,7.14,4.95,14.54,9.54,22.15,13.73,6.63,3.65,16.27,6.15,22.06,10.76,1.86,1.48,3.58-.11,2.34,3.22-.14.38-6.9,2.07-6.65,2-4.42,1.35-8.83,2.75-13.23,4.2-9.89,3.26-19.7,6.74-29.42,10.47-36.74,14.06-72.21,31.37-105.89,51.69-15.62,9.42-57.42,30.85-35.2,54.26,8.2,8.64,21.23,12.31,32.56,14.36,21.34,3.86,42.91,6.69,64.34,10.02,43.22,6.71,86.43,13.42,129.65,20.13,29.62,4.6,59.39,9.56,89.41,5.43,23.49-3.24,48.04-12.81,59.27-35.19,1.82-3.63,1.03-5.24,6.27-5.14,4.32.08,10.27,3.45,14.42,4.84,10.82,3.63,21.63,7.26,32.45,10.89,21.03,7.06,42.07,14.12,63.1,21.18,40.49,13.59,80.86,27.61,121.63,40.34,40.37,12.6,81.37,23.6,123.28,29.61,41.65,5.97,83.83,6.9,125.83,6.13,88-1.61,175.85-6.36,263.89-6.89s176.57,1.04,264.77,4.72c44.42,1.86,88.82,4.25,133.18,7.17,22.18,1.46,44.35,3.06,66.51,4.79,10.13.79,20.26,1.61,30.39,2.46,4.15.35,11.83,2.52,15.52.99,2.25-.93,4.74-4.56,6.48-6.23l11.05-10.63c5.03-4.84,10.06-9.68,15.09-14.51.05-.04-.02-.12-.07-.07-5.49,5.28-10.97,10.55-16.46,15.83l-11.31,10.88c-4.3,4.14-4.32,4.96-10.8,4.44-46.22-3.7-92.43-7.31-138.72-10.09-91.29-5.48-182.72-8.71-274.17-9.66-92.7-.97-185.41.43-278.03,4.08-45.2,1.78-90.46,3.9-135.69,2.25-45.66-1.66-90.6-8.15-134.88-19.41-48.5-12.33-95.8-28.91-143.2-44.82-49.28-16.54-98.56-33.09-147.84-49.63-.03,0-.05.01-.06.03-12.88,33.84-50.31,42.5-82.97,43.05-41.64.7-83.71-9.35-124.68-15.71-46.51-7.22-93.86-12.48-139.99-21.84-18.61-3.78-47.77-17.88-31.52-41.03,5.76-8.21,14.98-13.44,23.28-18.72,9.76-6.21,19.68-12.16,29.75-17.85,44.85-25.34,92.57-45.27,142.01-59.7.05-.01.04-.08,0-.1-37.99-15.42-72.02-39.68-98.58-70.98-14.32-16.87-31.65-38.56-29.73-62.09,1.68-20.62,18.16-36.29,35.97-44.65,21.25-9.97,45.23-9.18,68.12-7.87,20.68,1.19,41.14,2.33,61.73-.69,38.09-5.58,73.64-21.73,106.68-40.93,35-20.34,67.68-44.32,101.53-66.46,35.55-23.25,72.63-44.14,110.93-62.5,77.6-37.21,160.15-64.11,244.79-79.72,188.46-34.78,378.43-4.31,565.72,22.89,48,6.97,96,13.94,143.99,20.92,24,3.49,48,6.97,72,10.46,21.9,3.18,45.37,4.44,66.51,11.31,39.83,12.93,48.56,54.41,57.1,90.4,8.15,34.32,21.41,65.3,42.81,93.55,21.61,28.53,48.44,52.72,76.59,74.64,14.01,10.91,28.42,21.3,42.99,31.46,7.63,5.32,15.3,10.58,22.98,15.83,8.6,5.87,19.25,11.46,24.96,20.47,9.13,14.4-6.15,26.26-15.23,35.73-8.39,8.75-16.78,17.5-25.18,26.25-16.78,17.5-33.57,35-50.35,52.49-33.57,35-67.14,69.99-100.71,104.99-16.78,17.5-33.57,35-50.35,52.49-.04.05.03.12.07.07Z" style="fill: #1d1d1b; stroke-width: 0px;"/>
</svg>