<?xml version="1.0" encoding="UTF-8"?>
<svg id="Livello_1" data-name="Livello 1" xmlns="http://www.w3.org/2000/svg" width="1431.29" height="1079.54" viewBox="0 0 1431.29 1079.54">
  <path d="m1382.27,482.45c34.11-73.09,55.77-92.97,46.28-122.8-5.43-17.08-18.74-30.43-32.61-41.77-93.23-76.26-234.85-86.76-338.31-25.08,32.23-57.52,61.52-137.6,12.71-181.92-16.62-15.09-39.02-21.72-60.6-27.91-90.39-25.92-180.78-51.85-271.17-77.77-11.48-3.29-23.68-6.6-35.19-3.41-19.94,5.53-29.56,27.39-38.65,45.97-46.4,94.86-141.59,157.89-241.39,192.41-99.8,34.52-206.03,44.69-310.26,61.62-14.7,2.39-52.15.67-79.45,25.97-28.1,26.05-41.28,74.5-27.82,113.3,3.76,10.84,11.44,26.23,131.72,104.93,31.86,20.85,48.13,31.45,64.74,40.19,12.36,6.5,66.08,34.75,117.92,44.87,37.42,7.3,36.72,7.28,179.02-23.6,82.84-17.98,148.45-16.53,203.03-15.32,2.46.05,19.79-4.61,22.65.8,3.89,7.36-24.75,21.75-22.17,33.85,2.24,10.55,26.27,9.83,75.84,17.41,56.21,8.6,72.88,16.71,90.38,5-39.99,58.13-88.61,110.34-143.96,154.11-32.52,25.71-41.65,44.46-49.67,66.41-5.4,14.79-14.5,39.69-3.23,59.24,5.46,9.47,10.75,9.1,48.13,34.55,2.21,1.5,11.52,8.07,30.14,21.21,21.12,14.9,30.95,21.92,46,30.72,11.73,6.86,17.89,9.69,19.86,10.58,10.09,4.56,16.59,6.33,31.25,11.16,18.59,6.12,19.79,7.12,29.02,10.05,26.29,8.34,36.74,6.69,71.44,13.39,21.71,4.19,25.51,6.37,42.42,10.05,22.35,4.86,55.21,9.67,98.23,7.81,7.35-7.75,18.09-19.53,30.14-34.6,35.35-44.25,41.33-66.05,77.02-125.02,31.94-52.78,35.91-49.79,70.33-108.28,17.99-30.58,12.1-23.22,39.07-70.32,28.25-49.33,35.45-58.81,40.19-80.37,6.64-30.24-2.4-36.93,0-71.44,2.14-30.83,13.77-56.3,36.95-105.96Z" style="fill: #1d1d1b; stroke-width: 0px;"/>
  <path d="m1382.32,482.48c9.49-20.25,19.89-40,30.36-59.75,6.03-11.38,12.55-22.97,16.09-35.44,8.98-31.71-16.22-56.93-39.44-74.72-64.71-49.6-150.51-68.82-230.62-56.02-20.9,3.34-41.46,8.87-61.15,16.63-9.2,3.62-18.21,7.73-26.97,12.32-1.5.78-11.33,6.83-11.92,5.57-.65-1.39,6.33-11.81,7.21-13.53,17.43-34.09,33.33-73.54,30.09-112.59-1.38-16.58-6.92-32.71-17.55-45.67-13.29-16.21-32.32-25.02-51.86-31.33-52.01-16.8-105.26-30.41-157.8-45.47-27.12-7.78-54.23-15.55-81.35-23.33-13.56-3.89-27.12-7.78-40.68-11.67-11.2-3.21-22.79-7.38-34.6-7-18.8.6-30.58,15.06-38.94,30.35-9.97,18.24-18.41,36.86-30.2,54.1-50.07,73.24-129.24,122.47-211.46,152.28-99.81,36.19-206.31,46.66-310.5,63.24-16.13,2.57-32.62,2.9-48.5,6.95-18.68,4.77-35.31,14.47-47.52,29.53-22.71,28.02-31.57,70.3-19.1,104.56,2.61,7.16,7.48,12.85,12.83,18.17,16.13,16.02,35.24,29.31,53.73,42.39,36.12,25.56,73.06,50.45,110.9,73.4,27.31,16.57,56.73,30.25,86.69,41.21,23.39,8.56,48.52,16.22,73.58,18.12,15.39,1.17,30.89-1.55,45.97-4.3,38.57-7.02,76.73-16.18,115.1-24.19,47.13-9.83,95.08-14.33,143.19-14.76,9.99-.09,19.98-.02,29.97.13,8.37.12,17.19,1.15,25.51.37,5.03-.47,22.24-5.45,21.58,3.72-.21,2.89-4.43,6.21-6.35,8.11-2.9,2.85-5.95,5.54-8.76,8.48-4.69,4.92-11.32,13.52-3.93,19.06,8.51,6.39,23.24,6.21,33.3,7.49,24.19,3.08,48.27,6.52,72.27,10.91,13.28,2.43,27.52,6.23,41.14,5.08,4.01-.34,7.94-1.29,11.59-3,.76-.35,2.18-1.51,3.02-1.61,1.57-.17.55-.64.24.89-.2.96-2.44,3.5-2.85,4.08-3.58,5.09-7.23,10.14-10.95,15.13-15.1,20.32-31.28,39.83-48.46,58.43-16.9,18.29-34.75,35.7-53.49,52.1s-38.53,29.56-54.06,48.08c-9.97,11.89-16.79,25.43-22.14,39.91-6.42,17.37-13.25,37.79-5.55,55.9,3.2,7.53,8.29,11.68,15.02,15.96,13.01,8.28,26.12,16.36,38.76,25.21,29.62,20.74,58.69,44.42,91.69,59.69,15.87,7.34,33.07,11.57,49.47,17.52,14.4,5.23,28.93,9.15,44.12,11.34,20.03,2.89,40.04,5.65,59.68,10.72,16.14,4.17,32.21,7.93,48.74,10.19,9.93,1.35,19.92,2.28,29.93,2.84,12.28.68,26.22,2.23,38.4.31,3.62-.57,3.42-.73,6.18-3.69,3.62-3.89,7.19-7.83,10.69-11.82,7.49-8.54,14.73-17.3,21.66-26.3,23.19-30.13,40.02-63.85,58.91-96.68,17.9-31.09,38.32-60.03,58.19-89.8,16.45-24.65,30.96-50.38,44.97-76.46,9.66-17.98,19.9-35.64,30.14-53.29,7.66-13.2,15.91-26.3,22.16-40.26,4.81-10.74,7.83-22.42,8.84-34.15,1.55-17.94-3.24-35.77-2.39-53.8,1.85-39.18,20.91-75.03,37.17-109.88.03-.06-.06-.11-.09-.05-11.37,24.37-23.73,48.87-31.27,74.78-6.25,21.47-7.11,43.28-4.47,65.42,2.32,19.42.42,38.64-7.46,56.66-8.72,19.94-21.06,38.47-31.87,57.29-20.58,35.84-39.15,72.67-61.68,107.37-10.27,15.82-21.58,30.92-32,46.64-15.85,23.91-30.22,48.78-44.05,73.89-11.1,20.14-22.12,40.28-35.44,59.08-8.84,12.47-18.41,24.44-28.39,36.01-4.47,5.18-9.04,10.28-13.7,15.29-5.59,6-17.16,4-24.84,3.95-26.45-.18-52.92-2.86-78.74-8.66-10.7-2.4-21.21-5.57-31.94-7.88-14.02-3.01-28.17-5.16-42.36-7.11-19.46-2.67-37.4-8.03-55.87-14.45-12.8-4.45-26.01-7.98-38.5-13.27-9.72-4.12-18.92-9.39-27.94-14.84-21.83-13.19-42.29-28.65-63.13-43.32-15.24-10.73-31.28-20.19-46.7-30.62-19.01-12.86-16.6-38.06-10.44-57.64,7.27-23.08,17.51-43.82,34.77-61.12,11.2-11.22,24.08-20.55,36.16-30.75s24.37-21.32,35.98-32.59c22.93-22.26,44.35-46.08,64.08-71.22,9.23-11.76,18.06-23.82,26.56-36.12.03-.04-.03-.1-.07-.07-11.31,7.36-24.12,6.22-36.89,4.22-22.24-3.47-44.26-8.05-66.57-11.14-17.6-2.44-37.08-2.53-54.01-8.28-19.71-6.69.91-23.38,8.72-31.46,2.04-2.11,6.49-6.16,4.77-9.57-1.99-3.96-9.79-2.66-13.02-2.28-17.52,2.06-35.11.83-52.78.8-49.1-.08-98.07,3.69-146.3,13.15-41.19,8.08-81.95,18.32-123.26,25.84-16.23,2.95-32.86,5.79-49.39,3.97-33.06-3.63-65.4-14.95-95.75-28.03s-60.37-30.11-88.96-48.69c-36.86-23.97-73.94-47.95-108.9-74.66-12.78-9.77-27.64-20.2-36.73-33.82-1.7-2.55-2.98-5.25-4.01-8.14-7.85-22.17-6.61-47.26.65-69.4,7.35-22.42,21.54-43.22,42.43-54.91,17.83-9.98,37.68-12.24,57.63-14.14,23.94-2.28,47.84-7.2,71.63-10.71,27.94-4.13,55.89-8.23,83.74-12.91,55.3-9.3,110.45-20.92,163.46-39.47,83.58-29.25,164.36-78.25,215.83-151.87,12.8-18.31,21.71-38.22,32.51-57.63,5.51-9.9,12.37-19.94,22.64-25.37,14.33-7.58,30.31-2.78,44.88,1.39,56.95,16.31,113.89,32.66,170.84,49,28.47,8.17,56.95,16.33,85.42,24.5,25.16,7.22,52.83,13.33,72.78,31.4,34.44,31.19,28.64,81.19,15.08,120.99-7.21,21.15-16.92,41.37-27.79,60.87-.02.04.02.09.07.07,66.35-39.2,147.52-49.34,222.19-31.56,36.72,8.74,71.9,24.27,102.6,46.31,24.55,17.62,55.13,43.83,46.77,77.6-3.28,13.24-10.29,25.52-16.63,37.48-10.47,19.75-20.87,39.5-30.36,59.75-.03.06.06.11.09.05Z" style="fill: #1d1d1b; stroke-width: 0px;"/>
</svg>