<?xml version="1.0" encoding="UTF-8"?>
<svg id="Livello_1" data-name="Livello 1" xmlns="http://www.w3.org/2000/svg" width="1769.14" height="1080.05" viewBox="0 0 1769.14 1080.05">
  <path d="m1769.09,342.04c-100.64,198,22.94,418-38.85,638-20.6,100-164.78,40-247.17,40-20.6,20-41.2,60-82.39,60-226.57-20-411.95-80-638.52-140-82.39-20-20.6-100-20.6-160-247.17-40-473.74-20-700.32-140C20.65,620.05.05,580.05.05,540.05c0-100,102.99-140,185.38-120,205.98,20,432.55-20,576.73-160C823.95,180.05,865.15,80.05,906.34.05c123.59,20,226.57,80,340.9,94.77l13.51,9.43c29.56,13.08,28.86,62.06,59.93,71.25,11.33,3.35,23.46-.06,35.3-.37,29.46-.78,55.82,17.68,76.08,38.46,20.26,20.78,37.33,44.96,61.35,61.53,27.84,19.21,62.5,26.44,96.37,30.71,41.99,5.29,84.49,6.73,126.76,4.29,13.7-.79,28.45-1.75,40.11,5.28,11.66,7.04,16.43,25.7,5.23,33.4" style="fill: #1d1d1b; stroke-width: 0px;"/>
  <path d="m1769.05,342.02c-62.18,123.68-37.54,262.09-25.74,393.97,6.35,70.98,8.84,143-5.62,213.21-4.95,24.03-9.07,52.64-28.56,69.72-15.63,13.69-37.11,17.86-57.27,18.75-45.9,2.02-91.24-10.03-136.54-15.42-9.11-1.09-21.48-4.1-30.57-2.23-6.91,1.42-13.96,13.63-18.48,19.03-18.3,21.86-39.82,43.32-70.69,40.5-148.6-13.55-293.65-47.63-437.43-86.36-36.39-9.8-72.72-19.82-109.08-29.75-18.79-5.13-37.58-10.24-56.39-15.29-16.33-4.39-34.61-7.13-49.69-15.1-45.09-23.82-13.64-86.17-5.41-122.34,2.3-10.09,3.94-20.29,4.05-30.65,0-.02-.02-.04-.04-.05-104.74-16.85-210.66-23.27-316.01-34.98-105.09-11.69-209.9-30.16-308.43-69.8-13.78-5.54-27.41-11.46-40.86-17.76-12.26-5.74-28.39-11.15-38.17-20.68-18.12-17.66-29.74-45.02-34.98-69.3-9.05-41.97,2.65-86.6,34.99-115.59,28.25-25.33,67.17-36.72,104.61-36.79,19.59-.04,38.37,4.75,57.76,6.35,23.94,1.97,47.95,3.12,71.98,3.4,94.41,1.12,189.88-10.67,279.6-40.8,42.87-14.4,84.38-33.09,122.98-56.71,18.88-11.55,37.05-24.28,54.28-38.18,8.97-7.24,17.68-14.79,26.1-22.65,8.66-8.09,15.28-17.56,22.09-27.25,30.15-42.87,54.84-89.28,78.11-136.15,11.28-22.72,22.22-45.6,33.39-68.37,2.68-5.46,5.37-10.91,8.08-16.34,2.22-4.46,4.49-12.48,8.04-15.92,4.22-4.08,15,0,20.03,1,7.23,1.42,14.44,2.98,21.62,4.65,51.29,11.96,100.79,30.07,150.49,47.24,24.35,8.41,48.81,16.58,73.63,23.5,24.3,6.77,48.72,10.74,73.39,15.62,6.16,1.22,10.64,6.22,15.95,9.48,7.8,4.79,13.82,9.49,19,17.27,9.04,13.59,13.63,29.99,24.25,42.56,14.31,16.94,32.71,11.87,52.48,11.39,27.92-.69,52.74,15.74,72.05,34.46,18.6,18.04,33.78,39.38,53.49,56.33,18.36,15.79,40.32,25.68,63.61,31.77,53.31,13.93,111.53,15.47,166.27,12.72,13.85-.7,29.82-2.99,42.68,3.61,12.16,6.24,20.4,24.65,7.77,34.71-.05.04.02.11.07.07,7.53-6,7.79-15.85,3.47-24.03-6-11.36-19.02-14.67-30.98-15.21-19-.86-38.28,1.6-57.33,1.62-20.02.02-40.05-.83-60-2.55-37.97-3.27-78.31-7.94-112.25-26.58-32.6-17.91-52.31-49.59-78.79-74.49-11.04-10.38-23.44-19.69-37.41-25.76-15.74-6.83-30.44-7.11-47.26-5.51-17.95,1.71-31.55-2.76-41.72-17.83-6.66-9.88-10.94-21.12-16.78-31.46-5.14-9.11-11.26-16.71-20.37-22.01-6.07-3.53-11.36-9.15-18.19-10.66-17.23-3.81-34.8-5.81-52.01-10.01-17.21-4.2-34.24-9.14-51.14-14.48C1063.19,45.25,987.49,13.37,906.35,0c-.02,0-.05,0-.06.02-31.87,62.04-59.89,126.04-95.12,186.33-17.73,30.33-36.36,62.77-62.69,86.38-24.07,21.58-50.31,40.68-78.04,57.28-112.76,67.49-246.92,93.59-377.08,94.77-32.36.29-64.74-1-96.99-3.78-13.43-1.16-26.48-4.54-39.95-5.52-11.91-.87-23.92-.57-35.78.89-45.02,5.57-89.77,29.13-109.64,71.6C-.04,511.63-2.51,538.99,2.42,564.51c3.2,16.54,9.28,32.56,17.55,47.22,6.14,10.89,14.23,24.72,25.62,30.66,64.23,33.51,132.85,57.65,203.34,74.07,139.38,32.47,283.18,36.14,424.71,53.95,19.49,2.45,38.95,5.15,58.36,8.18,4.16.65,8.6.46,9.42,5.17.43,2.47-.4,5.99-.68,8.48-.8,6.88-2.15,13.68-3.74,20.42-5.34,22.63-13.94,44.69-16.92,67.84-2.18,16.97-.16,34.77,13.59,46.48,9.11,7.76,20.54,11.04,31.87,14.03,19.62,5.18,39.2,10.48,58.77,15.8,147.96,40.19,295.61,82.98,447.25,107.23,37.21,5.95,74.59,10.82,112.1,14.49,14.83,1.45,28,2.48,41.89-3.79,11.08-5.01,20.4-13.08,28.68-21.83,8.35-8.82,15.63-18.56,23.8-27.54,4.56-5.01,7.92-5.32,14.39-5.01,5.75.27,11.48.76,17.2,1.36,24.23,2.56,48.21,7.09,72.3,10.66,38.1,5.66,88.45,14.46,122.36-9.53,16.96-12,22.58-29.76,27.67-48.94,9.21-34.72,14.08-70.46,15.79-106.31,6.77-141.73-37.93-284.21-12.06-425.27,6.39-34.86,17.51-68.57,33.44-100.24.03-.06-.06-.11-.09-.05h0Z" style="fill: #1d1d1b; stroke-width: 0px;"/>
</svg>