<?xml version="1.0" encoding="UTF-8"?>
<svg id="Livello_1" data-name="Livello 1" xmlns="http://www.w3.org/2000/svg" width="1469.79" height="1080.4" viewBox="0 0 1469.79 1080.4">
  <path d="m363.57,1074.63c-50.56-17.08-240.41-87.78-324.07-277.08C1.2,710.88,2.67,634.9.59,565.98-4.19,407.09,20.99,229.88,143.68,128.82c108.82-89.64,281.68-89.17,390.02,1.05,40.87,34.03,73.87,79.38,122.38,101.19,87.01,39.1,187.8-11.58,261.43-72.24,73.64-60.65,143.34-135.69,236.85-154.63,119.91-24.3,244.37,60.29,290.32,173.68,45.95,113.39,24.58,245.37-30.26,354.74-54.82,109.38-139.97,200.19-225.86,287.31-128.65,130.5-282.84,265.2-466.01,259.93-119.66-1.74-239.33-3.48-358.99-5.22Z" style="fill: #1d1d1b; stroke-width: 0px;"/>
  <path d="m363.59,1074.58c-81.5-27.57-158.64-71.65-220.89-131.3-48.67-46.64-87.76-103.37-111.67-166.55C4.32,706.17,2.13,631.92.41,557.45c-3.07-132.74,13.21-281.7,101.74-387.32,43.28-51.63,101.71-86.96,167.63-101.03s135.73-7.57,197.12,19.58c31.34,13.86,59.14,33.25,84.12,56.62,25.88,24.21,49.6,51.22,79.12,71.19,28.49,19.27,61.53,29.13,95.94,28.3,34.66-.84,68.49-11.43,99.6-26.24,67.42-32.09,119.54-85.17,176.54-131.95C1057.6,41.16,1121.42.33,1195.53.05c67.63-.26,132.44,31.19,180.59,77.51,53.16,51.14,83.47,119.47,91.37,192.42,8.52,78.65-7.74,158.85-38.56,231.2-31.45,73.84-78.58,140.08-130.47,200.86-50.53,59.2-105.42,115.23-161.73,168.93-54.01,51.51-111.41,100.39-175.55,138.93-62.14,37.34-131.33,64.42-204.19,69.24-20.07,1.33-40.18.56-60.28.27-22.02-.32-44.04-.64-66.05-.96-44.99-.65-89.99-1.31-134.98-1.96-44.04-.64-88.07-1.28-132.11-1.92-.06,0-.06.1,0,.1,92.86,1.35,185.72,2.7,278.58,4.05,41.86.61,84.43,3.66,126.17-.4,35.15-3.41,69.68-11.93,102.74-24.26,68.91-25.72,130.97-67.18,187.64-113.53,59.5-48.67,113.89-103.35,167.1-158.71,109.87-114.33,215.44-244.95,239.29-406.71,10.91-74,3.82-152.98-30.87-220.17-30.17-58.43-80.76-106.95-140.94-133.67-60.64-26.93-127.32-27.85-188.29-1.42-67.82,29.41-121.22,83.12-176.91,130.1-57.38,48.41-128.55,94.85-206.45,94.8-40.04-.03-76.11-15.03-107.03-39.92-29.23-23.52-53.44-52.55-82.45-76.32-101.02-82.79-256.54-88.66-365.09-16.99C52.88,186.89,12.1,328.5,2.57,457.9-.03,493.15-.51,528.53.48,563.85c.99,35.18,1.38,70.43,5.26,105.45,8.25,74.36,34.56,144.87,77.89,205.92,60.11,84.69,148.21,146.93,243.7,185.95,11.94,4.88,24.02,9.38,36.24,13.51.06.02.09-.08.03-.1Z" style="fill: #1d1d1b; stroke-width: 0px;"/>
</svg>