<?xml version="1.0" encoding="UTF-8"?>
<svg id="Livello_1" data-name="Livello 1" xmlns="http://www.w3.org/2000/svg" width="1801.15" height="1079.44" viewBox="0 0 1801.15 1079.44">
  <path d="m527.52,1006.25c-205.77-118.82-372.77-303.6-470.24-520.3C17.31,397.08-11.54,298.82,4.9,202.78,21.33,106.74,93.37,15.13,189.89,1.81c89.45-12.34,172.75,41.17,252.66,83.23,79.91,42.05,182.42,72.86,256.07,20.61,26.88-19.07,46.13-47.13,71.88-67.7,79.4-63.41,199.73-39.52,284.17,17.01,19.05,12.75,37.73,27.23,59.93,32.96,51.25,13.23,100.29-22.95,147.73-46.41,193.21-95.52,447.91,39.1,516.18,243.54,68.27,204.44-24.65,439.09-187.86,579.87-163.2,140.78-383.42,199.58-598.61,211.82-123.64,7.03-248.06.09-370.15-20.66l-94.38-49.83Z" style="fill: #1d1d1b; stroke-width: 0px;"/>
  <path d="m527.54,1006.2c-143.92-83.35-268.89-198.43-364.4-334.56-48.38-68.95-89.88-143.45-121.13-221.73C7.84,364.31-14.56,266.67,11.1,175.65,31.58,102.99,83.97,34.33,157.25,9.58c88.57-29.92,176.53,16.84,252.76,58.06,67.95,36.74,145.01,75.85,224.87,63.45,40.16-6.24,70.5-27.71,98.06-56.52,15.1-15.78,29.87-31.96,48.07-44.29,16.13-10.93,34.22-18.84,53.07-23.71,77.46-20.01,161.37,8.12,225.52,51.79,17.19,11.7,34.54,24.32,54.98,29.61,18.56,4.8,37.89,2.95,56.09-2.48,39.74-11.84,73.54-37.46,111.75-52.95,129.54-52.52,279.2-6.94,380.73,82.43,51.97,45.75,93.26,104.22,115.31,170.09,24.9,74.4,28.37,154.67,14.44,231.62-28.92,159.77-127.58,300.32-259.49,392.69-140.57,98.43-311.05,145.79-480.22,162.57-96.3,9.55-193.67,9.78-290.1,1.85-25.38-2.09-50.7-4.76-75.96-8.01-13.77-1.77-27.52-3.72-41.24-5.85-8-1.24-17.29-1.47-24.8-4.32-6.59-2.51-12.95-6.83-19.17-10.12-10.88-5.74-21.75-11.48-32.63-17.23-13.92-7.35-27.84-14.7-41.76-22.05-.06-.03-.11.06-.05.09,15.47,8.17,30.94,16.34,46.41,24.5,10.98,5.8,21.95,11.59,32.93,17.39,4.8,2.54,9.87,6.1,15.01,7.92,9.36,3.32,21.11,3.49,30.9,4.96,11.45,1.72,22.92,3.32,34.4,4.8,26.4,3.41,52.88,6.17,79.42,8.29,51.34,4.11,102.87,5.82,154.36,5.12,175.6-2.39,355.07-31.6,513.3-110.87,74.25-37.19,143.81-85.58,201.02-146.05,54.24-57.33,97.82-125.04,126.9-198.44,55.14-139.17,56.71-305.66-30.56-432.33-75.8-110.03-209.1-186.21-344.33-181.27-33.21,1.21-66.22,7.53-97.35,19.19-39,14.6-72.99,40.01-112.36,53.64-22.17,7.67-46,10.51-68.64,3.02-21.7-7.17-39.67-21.91-58.6-34.16-32.95-21.33-69.83-37.17-108.21-45.56-36.21-7.92-74.5-9.16-110.48.66-17.15,4.68-33.61,11.9-48.5,21.64-17.86,11.68-32.5,27.11-47.13,42.48-15.47,16.25-31.39,32.14-51.23,43.05-18.6,10.23-39.32,16.02-60.41,18.01-42.57,4.01-85.58-6.4-125.13-21.49C415.34,78.79,342.53,17.97,252.23,3.01,214.65-3.22,176.12.2,141.16,15.76c-33.05,14.71-61.35,38.72-83.48,67.15-112.65,144.76-38.45,341.53,39.81,483.69,80.39,146.02,193.05,274.14,327.45,372.73,32.94,24.16,67.19,46.49,102.54,66.96.06.03.11-.05.05-.09Z" style="fill: #1d1d1b; stroke-width: 0px;"/>
</svg>