<?xml version="1.0" encoding="UTF-8"?>
<svg id="Livello_1" data-name="Livello 1" xmlns="http://www.w3.org/2000/svg" width="1695.13" height="1078.61" viewBox="0 0 1695.13 1078.61">
  <path d="m1555.11,1068.52c91.43-59.51,135.98-173.04,139.72-282.07,3.74-109.03-27.29-215.91-58.03-320.58-28.48,47.82-100.39,50.51-148.9,23.22-48.52-27.29-81.17-75.08-118.38-116.48-37.21-41.4-86.39-79.67-141.97-76.62-6.74,40.22-13.47,80.45-20.21,120.67-46.75-127.48-233.02-175.77-335.83-87.07-22.75,19.63-43.36,45.25-72.87,50.97-23.69,4.59-47.58-4.95-69.83-14.3-98.58-41.43-208.24-94.64-239.29-196.97C471.87,111.15,479.89,38.68,432.99.05,303.22,141.29,173.92,282.98,45.11,425.1c-25.52,28.16-52.93,63.6-42.74,100.21,8.54,30.69,41.82,48.81,73.58,51.28,31.76,2.47,63.04-7.04,94.19-13.71,141.59-30.3,295.09-.07,414.62,81.64-34.48,25.58-70.08,52.45-90.11,90.43-20.03,37.98-19.5,90.46,12.93,118.59,18.74,16.26,44.25,21.7,68.58,26.58,47.66,9.56,95.32,19.11,142.98,28.67,12.01,2.41,25.69,6.06,30.92,17.13,8.96,18.95-14.64,39.92-10.16,60.4,3.67,16.77,23.38,23.68,40.11,27.52,238.22,54.62,484.29,74.87,728.24,59.95l46.85-5.28Z" style="fill: #1d1d1b; stroke-width: 0px;"/>
  <path d="m1555.13,1068.56c62.88-41.37,103.56-107.95,123.83-179.44,24.09-84.93,18.2-174.24.8-259.86-11.23-55.23-27.06-109.38-42.92-163.42-.01-.04-.07-.05-.09-.01-34.22,55.65-114.21,47.14-161.59,15.34-58.61-39.34-92.11-104.95-147.35-148.12-28.81-22.52-63.03-38.73-100.28-37.12-.02,0-.04.01-.05.04-4.55,27.18-9.1,54.36-13.66,81.54-.56,3.34-5.87,37.55-7.17,37.24-.74-.18-3.34-8.17-3.85-9.32-1.9-4.25-3.98-8.43-6.21-12.52-14.9-27.29-36.86-50.29-62.49-67.75-52.66-35.88-121.3-49.85-183.54-35.25-31.89,7.48-60.72,22.79-84.93,44.8-15.81,14.37-30.76,30.84-50.32,40.19-26.77,12.79-54.77,4.37-80.67-6.26-74.41-30.54-155.15-66.28-207.38-129.92-14.3-17.42-25.99-36.97-33.88-58.11-7.92-21.23-11.52-43.68-14.92-65.98-6.24-40.87-11.91-86.25-45.44-114.61-.02-.02-.05-.02-.07,0-71.34,77.64-142.53,155.42-213.58,233.33-35.52,38.95-71.01,77.94-106.46,116.96-17.35,19.1-34.69,38.2-52.02,57.31-15.49,17.09-31.78,33.85-44.22,53.39-10.12,15.9-18.01,34.4-16.3,53.63,1.51,16.88,10.39,31.65,23.47,42.18,31.06,25.01,72.12,22.21,108.84,14.53,23.53-4.92,46.73-10.88,70.54-14.37,22.16-3.25,44.53-5.06,66.92-5.47,44.81-.83,89.71,3.95,133.37,14.06s86.08,25.54,125.92,46.06c9.13,4.7,18.12,9.67,26.95,14.9,4.52,2.67,27.97,13.72,26.15,19.6-.9,2.91-10.65,7.96-13.22,9.91-3.67,2.79-7.32,5.61-10.94,8.47-8.64,6.84-17.1,13.93-25.12,21.5-27.41,25.84-49.59,58.03-51.97,96.64-2.13,34.63,12.56,67.17,44.51,82.83,19.72,9.66,42.03,13.04,63.35,17.32,24.91,5,49.83,9.99,74.74,14.99,11.91,2.39,23.83,4.78,35.74,7.17,12.31,2.47,26.02,3.77,37.49,9.22,25.51,12.13,10.35,35.6,4.36,54.54-12.99,41.1,43.46,46.47,70.48,52.3,50.13,10.82,100.58,20.12,151.27,27.9,99.22,15.23,199.34,24.62,299.66,28.14,51.25,1.8,102.55,2.05,153.82.76,37.27-.94,74.6-2.04,111.65-6.21,8.92-1.01,17.84-2.01,26.76-3.02.06,0,.06-.11,0-.1-23.26,2.62-46.35,5.36-69.73,6.58-52.3,2.73-104.68,3.84-157.05,3.35-106.92-1.01-213.77-8.71-319.72-23.04-51.9-7.02-103.58-15.63-154.95-25.82-25.33-5.02-50.74-10.08-75.82-16.26-10.18-2.51-20.96-5.8-29.04-12.78-10.52-9.09-10.78-21.67-6.47-33.97,4.78-13.65,16-30.66,5.45-44.44-10.79-14.09-35.68-14.76-51.36-17.9-26-5.21-51.99-10.43-77.99-15.64-23.96-4.81-48.55-8.49-72.03-15.41-24.74-7.29-46.72-20.98-57.51-45.2-9.54-21.42-9.65-46.37-3.63-68.76,13.68-50.9,59.33-84.76,99.54-114.62.03-.02.03-.06,0-.09-67.3-45.73-144.81-75.5-225.28-87.33-39.72-5.84-80.09-7.34-120.12-4.28-19.08,1.46-38.09,3.95-56.9,7.49-21.94,4.13-43.46,10.28-65.51,13.86-39.11,6.34-89.93,1.57-110.39-38.26-22.59-43.98,17.87-88.01,45.33-118.29,65.54-72.3,131.21-144.49,197.01-216.56,33.28-36.45,66.58-72.87,99.92-109.27,16.67-18.2,33.35-36.39,50.03-54.57,7.96-8.68,15.93-17.35,23.9-26.03,3.68-4.01,8.03-11.94,13.72-8.07,3.58,2.43,6.71,6.69,9.38,10,22.82,28.33,27.19,66.75,32.49,101.48,5.17,33.89,11.97,66.73,29.54,96.62,35.05,59.61,97.31,97.59,157.96,126.95,16.3,7.89,32.85,15.27,49.5,22.4,18.86,8.08,38.06,17.25,58.53,20.25,39.03,5.73,64.5-21.06,90.86-45.21,91.8-84.08,252.03-60.03,321.89,41.27,8.52,12.35,15.38,25.69,20.63,39.74.02.04.09.05.1,0,4.19-25,8.38-50.01,12.56-75.01,2-11.96,4.01-23.92,6.01-35.88.57-3.41.23-8.22,4.27-9.86,1.06-.43,4.01-.06,5.34-.04,7.02.11,14.03.86,20.91,2.22,41.78,8.22,77.02,36.4,105.65,66.58,50.5,53.23,94.46,129.23,173.72,140.48,29.18,4.14,61.65-.61,84.76-20.13,2.9-2.45,5.62-5.12,8.12-7.98,1.76-2.01,3.72-5.96,5.81-7.52,3.15-2.36,2.28-1.17,4.04,2.57.84,1.78,1.29,4.41,1.82,6.23,2.13,7.27,4.25,14.55,6.36,21.83,6.62,22.93,13.07,45.91,18.99,69.03,23.3,90.94,39.23,186.75,22.3,280.24-15.59,86.11-58.39,169.99-132.97,219.06-.05.04,0,.12.05.09Z" style="fill: #1d1d1b; stroke-width: 0px;"/>
</svg>