<?xml version="1.0" encoding="UTF-8"?>
<svg id="Livello_1" data-name="Livello 1" xmlns="http://www.w3.org/2000/svg" width="1886.46" height="678.32" viewBox="0 0 1886.46 678.32">
  <path d="m1668.75,519.29h0c-89.76,35.46-164.84,44.56-212.42,46.79-63.91,2.99-102.32-5.27-116.95-8.8-51.96-12.56-86.72-33.42-105.66-44.13-149.22-84.42-437.84-173.77-473.24-179.29-2.91-.45-15.62-2.14-19.11-10.22-2.31-5.34.09-11.91,3.2-20.37,1.89-5.17,4.31-9.97,7.55-15.09,6.36-10.06,12.75-16.43,15.09-18.86,6.67-6.96,15.21-18.39,22.64-37.73-10.65-5.31-32.06-14.14-59.1-12.58-6.81.39-22.72,1.47-40.24,10.06-7.68,3.77-10.8,6.59-16.35,10.06-10.67,6.68-27.3,13.87-52.95,15.22-89.65-54.83-184.08-101.84-281.87-140.33-14.76-5.81-29.81-11.54-42.59-20.93-7.89-5.8-14.74-12.87-22.1-19.32-22.39-19.62-49.26-33.36-76.33-45.75C162.02,11.4,122.95-3.46,83.26.71,43.57,4.87,3.83,33.82.28,73.57c-3.18,35.68,21.89,66.98,45.47,93.95,39.89,45.63,79.78,91.27,119.67,136.9,32.17,36.8,64.67,73.91,103.98,102.94,58.46,43.16,58.62,27.85,105.96,67.18,35.5,29.49,67.51,68.2,131.53,145.62,9.7,11.74,17.58,21.41,22.64,27.67.85.71,10.66,8.62,20.12,5.03,8.56-3.25,11.02-13.72,11.32-15.09,3.92-17.9-16.21-30.73-35.76-61.33-6.2-9.71-14.55-24.67-21.45-45.2,262.81,95.79,543.09,166.85,820.61,131.75,46.14-5.84,92.14-14.6,138.65-14.53,52.47.08,52.72,6.62,174.65,19.5,92.39,9.76,138.87,10.98,179.57,10.05,29.05-.66,53.01-2.37,69.17-3.77-68.19-47.04-136.39-94.08-204.58-141.12l-13.09-13.81Z" style="fill: #1d1d1b; stroke-width: 0px;"/>
  <path d="m1668.74,519.24c-81.88,32.1-170.3,50.42-258.51,47.07-33.05-1.26-65.44-6.22-96.92-16.47-33.86-11.02-63.72-28.48-94.87-45.17-66.33-35.53-136.64-63.79-207.03-90.13-63.2-23.64-127.14-45.54-191.78-64.93-18.64-5.59-37.47-11.67-56.61-15.37-6.59-1.27-14.31-1.88-19.19-7.13-10.93-11.76,6.75-37.53,13.91-46.87,4.92-6.42,10.91-11.88,15.8-18.32,7.01-9.22,12.09-19.62,16.35-30.35,0-.02,0-.05-.02-.06-19.59-9.62-41.16-14.14-62.98-12.32-10.84.91-21.51,3.36-31.54,7.6-10.54,4.46-19.22,11.85-29.46,16.82-11.6,5.64-28.24,11.39-41.25,10.43-8.17-.6-16.07-7.46-22.92-11.53s-14.08-8.3-21.16-12.39c-27.82-16.03-56.07-31.32-84.7-45.86-29.15-14.8-58.71-28.81-88.62-42.01-28.74-12.68-58.35-23.38-87.03-36.14-27.7-12.33-46.7-36.02-72.05-52.05-24.93-15.76-52.43-28.42-79.96-38.93C120.34-3.1,62.04-10.17,22.31,29.09,6.39,44.81-2.26,66.14.51,88.59c3.11,25.11,18.44,46.88,34.1,65.92,42.79,52.04,88.67,101.8,133.03,152.51,39.41,45.06,80,89.13,131.48,120.66,13.54,8.29,28.15,14.41,41.91,22.27,17.28,9.87,32.89,22.75,47.53,36.16,31.28,28.68,58.34,61.88,85.44,94.41,10.19,12.23,20.34,24.5,30.48,36.77,8.05,9.73,15.5,20.86,24.41,29.8,10.54,10.58,26.42,7.83,31.32-6.51,5.26-15.41-8.16-28.77-17.01-39.76-8.88-11.04-17.25-22.42-24.13-34.83-2.91-5.25-5.58-10.63-8.02-16.12-1.58-3.56-5.5-9.63-5.49-13.67.01-5.47,4.25-2.73,8.21-1.3,123.63,44.69,249.83,83.36,379.02,108.35,126.22,24.41,255.56,35.49,383.92,24.76,64.2-5.37,127.86-20.29,192.48-19.48,24.08.3,47.59,3.82,71.37,7.34,89.54,13.24,181.03,23.9,271.69,22.27,24.75-.44,49.48-1.76,74.15-3.88.05,0,.07-.06.03-.09-41.85-28.87-83.69-57.73-125.54-86.6-20.66-14.25-41.33-28.51-61.99-42.76-7.1-4.9-14.68-9.26-20.63-15.54l-9.5-10.02s-.11.02-.07.07c4.03,4.25,7.87,8.94,12.2,12.88,9.36,8.51,21.47,15.13,31.89,22.32,27.9,19.24,55.79,38.49,83.69,57.73s54.76,37.78,82.14,56.66c1.57,1.08,5.08,2.19,5.18,4.32.12,2.38.37.34-1.61,1.29-1.66.8-5.04.41-6.89.55-6.22.47-12.43.89-18.66,1.26-13.96.82-27.93,1.38-41.9,1.66-90.35,1.86-181.56-8.65-270.8-21.73-22.51-3.3-44.88-7.04-67.66-7.69-58.86-1.69-116.6,10.85-174.86,17-127.47,13.46-256.41,4.87-382.37-17.55-126.03-22.43-249.31-58.42-370.02-100.68-15.12-5.3-30.21-10.7-45.27-16.18-.04-.01-.07.03-.06.06,7.89,22.87,19.15,43.73,33.99,62.84,7.08,9.11,15.89,17.86,20.92,28.35,4.55,9.49,3.33,23.52-6.81,29.33-14.16,8.11-24.43-6.69-31.83-15.76-9.66-11.82-19.41-23.57-29.14-35.33-16.55-19.99-33.11-39.98-50.1-59.6-23.8-27.49-48.6-54.28-77.62-76.37-12.79-9.74-26.35-17.31-40.71-24.39-19.76-9.74-38.13-21.76-55.7-35.02-49.96-37.7-89.61-87.59-130.55-134.42-21.57-24.68-43.15-49.36-64.72-74.04-20-22.88-42.38-45.22-57.64-71.69C-1.15,99.21-5.77,68.18,11.59,42.19,26.12,20.42,51.09,6.01,76.67,1.69c31.59-5.34,63.76,2.83,93.12,14.2s57.02,24.17,82.48,40.99c13.44,8.88,24.74,19.59,36.84,30.08,9.75,8.46,20.71,14.77,32.51,19.92,28.3,12.35,57.31,23.02,85.57,35.5,56.62,24.99,111.96,52.87,165.73,83.51,13.7,7.8,27.29,15.79,40.78,23.95,5.36,3.24,6.59,4.72,12.62,4.19s12.14-1.43,18.1-2.81c22.91-5.3,39.55-21.69,61.83-28.17,24.61-7.15,51.58-4.91,75.17,4.76,1.18.48,6.16,1.81,6.96,3.1,1.63,2.65-2.62,10.32-3.96,13.03-2.77,5.62-5.94,11.07-9.62,16.15-5.46,7.55-12.45,13.76-18.02,21.23-8.36,11.2-27.28,40.11-7.64,49.5,7.07,3.38,16.14,3.9,23.78,5.8,25.8,6.39,51.26,14.34,76.61,22.32,83,26.1,165.2,55.32,245.59,88.64,41.49,17.19,82.65,35.51,122.28,56.68,38.16,20.38,74.47,40.88,116.83,51.8,80.35,20.71,169.61,11.12,249.11-9.04,29.04-7.37,57.52-16.72,85.41-27.65.06-.02.03-.12-.03-.1Z" style="fill: #1d1d1b; stroke-width: 0px;"/>
</svg>