<?xml version="1.0" encoding="UTF-8"?>
<svg id="Livello_1" data-name="Livello 1" xmlns="http://www.w3.org/2000/svg" width="1920.05" height="817.93" viewBox="0 0 1920.05 817.93">
  <path d="m157.57,812.83c-84.61-88.32-118.28-214.1-148.34-333.48-6.71-26.64-13.41-54.78-5.87-81.19,6.38-22.34,22.22-40.61,38.3-57.38C198.57,177.16,425.31,82.87,651.97,86.98c80.68,1.47,160.69,14.75,241.26,19.37C1237.31,126.08,1575.04-12.18,1919.45.87c6.09,36.95-36.67,61.08-71.94,73.67C1275.79,278.72,718.02,521.95,179.37,801.98l-3.5,2.31-3.4,5.83-1.94,7.77s-9.44-1.39-12.96-5.06Z" style="fill: #1d1d1b; stroke-width: 0px;"/>
  <path d="m157.61,812.79c-46.22-48.66-77.56-108.57-100.75-171.09-11.65-31.4-21.37-63.49-30.24-95.78-9.02-32.85-19.52-66.43-24.64-100.14-3.23-21.24-2.56-42.65,7.13-62.24,8-16.17,20.2-29.8,32.58-42.74,22.53-23.54,46.58-45.63,71.83-66.21,51.32-41.82,107.73-77.35,167.47-105.87,121.05-57.78,255.47-86.42,389.58-81.17,78.03,3.06,155.31,15.64,233.29,19.39,74.28,3.57,148.75-.12,222.65-7.91,147.76-15.57,293.14-47.17,439.72-70.53,74.8-11.92,150.02-21.74,225.67-26.08,37.73-2.16,75.55-2.95,113.34-1.97,4.91.13,9.4-.97,12.66,2.79s2.16,8.26,1.22,12.81c-1.46,7.14-4.86,13.62-9.27,19.36-9.03,11.78-21.8,20.3-34.82,27.13-31.19,16.37-66.62,25.91-99.66,37.92-36.02,13.1-71.97,26.35-107.88,39.75-71.8,26.81-143.37,54.24-214.71,82.29-142.1,55.87-283.24,114.18-423.34,174.88-140.66,60.95-280.26,124.32-418.73,190.07-138.47,65.75-275.82,133.89-411.94,204.37-8.07,4.18-20.64,7.39-25.07,16.03-1.19,2.33-1.44,4.56-2.47,6.93-1.09,2.5-.12,2.01-2.23,2.75-2.59.91-10.82-4.3-11.41-4.77-.05-.04-.12.03-.07.07,3.71,3.01,8.31,4.31,12.98,5.07.03,0,.05,0,.06-.03,1.52-6.06,2.71-11.95,8.27-15.52,12.81-8.2,27.54-14.36,41.06-21.34,29.74-15.33,59.53-30.55,89.38-45.66,59.7-30.21,119.64-59.98,179.79-89.29,120.3-58.62,241.49-115.43,363.5-170.42,123.12-55.48,247.07-109.09,371.81-160.81,123.62-51.26,248.01-100.66,373.12-148.17,62.55-23.76,125.28-47.05,188.19-69.86,27.74-10.06,56.79-18.42,83.43-31.2,18.43-8.84,38.79-21.44,47.34-40.96,3.35-7.65,4.14-15.59,3.02-23.82,0-.02-.03-.04-.05-.04-172.29-6.27-342.63,24.75-511.49,54.93-170.92,30.55-344.12,60.9-518.45,50.33-88.57-5.37-176.53-20.72-265.48-19.16-74.48,1.3-148.69,13.1-220.07,34.36-71.4,21.27-139.99,52.01-203.35,91.21s-123.78,86.21-171.9,142.36c-10.93,12.76-20.74,26.98-25.4,43.29-5.45,19.06-3.39,39.2.51,58.35,7.79,38.22,18.64,76.24,29.54,113.67,20.72,71.14,47.12,142.2,90.89,202.67,10.19,14.08,21.32,27.42,33.29,40.03.04.05.12-.02.07-.07Z" style="fill: #1d1d1b; stroke-width: 0px;"/>
</svg>