<?xml version="1.0" encoding="UTF-8"?>
<svg id="Livello_1" data-name="Livello 1" xmlns="http://www.w3.org/2000/svg" width="1917.57" height="700.1" viewBox="0 0 1917.57 700.1">
  <path d="m1917.05,638.26c5.5-58.51-33.57-113.13-81.31-147.39-47.74-34.26-104.31-53.64-156.29-81.05-77.66-40.95-144.39-99.42-215.58-150.8C1135.74,22.22,700.17-58.98,308.76,43.69c-91.18,23.92-183.67,59.72-246.46,130.03C-.49,244.02-23.98,356.69,30.49,433.62c46.65,65.89,132.83,87.87,211.69,105.18,185.1,40.63,370.2,81.26,555.31,121.89,66.66,14.63,133.53,29.3,201.49,35.55,92.75,8.53,186.14,1.28,279-5.98,191.69-14.98,383.39-29.96,575.08-44.94l64-7.07Z" style="fill: #1d1d1b; stroke-width: 0px;"/>
  <path d="m1917.1,638.26c5.12-62.72-37.49-117.49-86.78-151.25-31.14-21.33-65.68-36.86-99.86-52.58-34.1-15.68-67.32-32.48-98.95-52.76-63.11-40.45-120.1-89.46-181.39-132.49-56.12-39.4-115.33-74.37-176.83-104.69-122.59-60.45-254.17-102.45-388.95-125.03C750.1-3.04,612.52-6.25,477.46,10.98c-66.89,8.53-133.42,21.81-198.14,40.82-63,18.5-125.57,43.74-177.49,84.78C52.67,175.43,16.49,228.34,4.25,290.34c-11.13,56.37-.16,116.05,39.12,159.4s101.5,65.55,158.97,79.89c77.08,19.23,155.29,34.57,232.89,51.6,82.74,18.16,165.49,36.32,248.23,54.49,80.78,17.73,161.44,37.47,243.06,51.04,163.72,27.22,330.18,5.22,494.28-7.61,83.94-6.56,167.89-13.12,251.83-19.68,66.57-5.2,133.44-8.91,199.81-16.24,14.87-1.64,29.74-3.28,44.61-4.93.06,0,.06-.11,0-.1-120,13.25-240.58,20.86-360.94,30.27-81.44,6.36-162.88,12.73-244.32,19.09-81.19,6.34-162.57,13.78-244.09,12.29-81.86-1.5-161.82-15.67-241.63-32.96s-158.8-34.83-238.2-52.26c-80.29-17.62-160.59-35.25-240.88-52.87-38.58-8.47-77.19-16.77-115.73-25.43-30.42-6.83-60.79-14.38-90.06-25.22-59.2-21.92-113.69-60.43-133.1-123.24-18.56-60.06-3.7-127.22,28.69-179.78,35.22-57.15,93.01-96.77,153.29-123.86,61.88-27.82,128.65-44.86,195-58.09C517.09-.17,652.97-6.31,786.89,6.69c134.52,13.05,267.17,45.35,392.52,95.91,62.62,25.26,123.41,55.1,181.6,89.35,60.26,35.47,116.25,76.55,171.76,118.93,58.79,44.89,118.25,86.74,185.53,118.05,63.44,29.52,132.03,57.67,172.58,118,18.18,27.04,28.8,58.55,26.12,91.33,0,.06.09.06.1,0Z" style="fill: #1d1d1b; stroke-width: 0px;"/>
</svg>